<svg width="21" height="21" viewBox="0 0 21 21" fill="none" xmlns="http://www.w3.org/2000/svg">
<path fill-rule="evenodd" clip-rule="evenodd" d="M21 0.500002C21 0.776144 20.7761 1 20.5 1L0.5 1C0.223858 1 0 0.776142 0 0.5C0 0.223858 0.223858 0 0.5 0H20.5C20.7761 0 21 0.223859 21 0.500002ZM21 10.5C21 10.7761 20.7761 11 20.5 11L0.5 11C0.223858 11 0 10.7761 0 10.5C0 10.2239 0.223858 10 0.5 10L20.5 10C20.7761 10 21 10.2239 21 10.5ZM20.5 21C20.7761 21 21 20.7761 21 20.5C21 20.2239 20.7761 20 20.5 20L0.5 20C0.223858 20 0 20.2239 0 20.5C0 20.7761 0.223858 21 0.5 21L20.5 21Z" fill="url(#paint0_linear_1778_11616)"/>
<defs>
<linearGradient id="paint0_linear_1778_11616" x1="0.807941" y1="14.3679" x2="5.13158" y2="3.5" gradientUnits="userSpaceOnUse">
<stop stop-color="#F44242"/>
<stop offset="1" stop-color="#569EF0"/>
</linearGradient>
</defs>
</svg>
