<svg width="95" height="34" viewBox="0 0 95 34" fill="none" xmlns="http://www.w3.org/2000/svg">
<path d="M2.41016 0.5C2.13401 0.5 1.91016 0.723858 1.91016 1C1.91016 1.27614 2.13401 1.5 2.41016 1.5V0.5ZM0.556603 29.6464C0.361341 29.8417 0.361341 30.1583 0.556603 30.3536L3.73858 33.5355C3.93385 33.7308 4.25043 33.7308 4.44569 33.5355C4.64095 33.3403 4.64095 33.0237 4.44569 32.8284L1.61726 30L4.44569 27.1716C4.64095 26.9763 4.64095 26.6597 4.44569 26.4645C4.25043 26.2692 3.93385 26.2692 3.73858 26.4645L0.556603 29.6464ZM2.41016 1.5H93.9102V0.5H2.41016V1.5ZM64.9102 29.5L0.910156 29.5L0.910156 30.5L64.9102 30.5V29.5ZM93.4102 1C93.4102 16.7401 80.6503 29.5 64.9102 29.5V30.5C81.2026 30.5 94.4102 17.2924 94.4102 1H93.4102Z" fill="url(#paint0_linear_4973_4357)"/>
<defs>
<linearGradient id="paint0_linear_4973_4357" x1="4.48818" y1="20.8414" x2="6.61202" y2="3.72144" gradientUnits="userSpaceOnUse">
<stop stop-color="#F44242"/>
<stop offset="1" stop-color="#569EF0"/>
</linearGradient>
</defs>
</svg>
