<svg width="42" height="42" viewBox="0 0 42 42" fill="none" xmlns="http://www.w3.org/2000/svg">
<path fill-rule="evenodd" clip-rule="evenodd" d="M1.5 21C1.5 10.2304 10.2304 1.5 21 1.5C31.7696 1.5 40.5 10.2304 40.5 21C40.5 31.7696 31.7696 40.5 21 40.5C10.2304 40.5 1.5 31.7696 1.5 21ZM21 0.5C9.67816 0.5 0.5 9.67816 0.5 21C0.5 32.3218 9.67816 41.5 21 41.5C32.3218 41.5 41.5 32.3218 41.5 21C41.5 9.67816 32.3218 0.5 21 0.5ZM31.5937 15.5683C31.9711 15.7922 32.2839 16.1101 32.5018 16.4909C32.7162 16.8511 32.8379 17.2587 32.8562 17.6774C32.8746 18.0961 32.789 18.5128 32.6072 18.8904L28.4125 27.2017C28.3063 27.4106 28.1442 27.5861 27.9444 27.7085C27.7445 27.831 27.5146 27.8958 27.2802 27.8956L15.8562 27.8528C15.5695 27.8616 15.2884 27.773 15.0586 27.6016C14.8287 27.4302 14.6637 27.186 14.5903 26.9088L11.1357 13.8722L9.56171 13.8663C9.22506 13.8651 8.9027 13.7302 8.66555 13.4912C8.42839 13.2523 8.29586 12.9289 8.29712 12.5923C8.29838 12.2556 8.43332 11.9332 8.67227 11.6961C8.9112 11.4589 9.23456 11.3264 9.57121 11.3277L12.1099 11.3372C12.3965 11.3284 12.6776 11.417 12.9075 11.5884C13.1373 11.7598 13.3024 12.004 13.3757 12.2812L14.1012 15.1527L30.3488 15.2135C30.7874 15.2222 31.2164 15.3445 31.5937 15.5683ZM17.0408 30.823C17.0309 31.8745 16.1704 32.7189 15.1189 32.709C14.0674 32.6991 13.223 31.8386 13.2329 30.7871C13.2428 29.7356 14.1033 28.8912 15.1548 28.9011C16.2063 28.911 17.0507 29.7714 17.0408 30.823ZM27.8095 32.8282C28.861 32.8381 29.7214 31.9937 29.7314 30.9422C29.7413 29.8906 28.8969 29.0302 27.8453 29.0203C26.7938 29.0104 25.9334 29.8548 25.9235 30.9063C25.9136 31.9578 26.758 32.8183 27.8095 32.8282Z" fill="url(#paint0_linear_1672_8290)"/>
<defs>
<linearGradient id="paint0_linear_1672_8290" x1="2.07741" y1="28.5517" x2="10.5188" y2="7.33333" gradientUnits="userSpaceOnUse">
<stop stop-color="#F44242"/>
<stop offset="1" stop-color="#569EF0"/>
</linearGradient>
</defs>
</svg>
