<svg width="42" height="42" viewBox="0 0 42 42" fill="none" xmlns="http://www.w3.org/2000/svg">
<path fill-rule="evenodd" clip-rule="evenodd" d="M1.88281 21C1.88281 10.2304 10.6133 1.5 21.3828 1.5C32.1524 1.5 40.8828 10.2304 40.8828 21C40.8828 31.7696 32.1524 40.5 21.3828 40.5C10.6133 40.5 1.88281 31.7696 1.88281 21ZM21.3828 0.5C10.061 0.5 0.882812 9.67816 0.882812 21C0.882812 32.3218 10.061 41.5 21.3828 41.5C32.7046 41.5 41.8828 32.3218 41.8828 21C41.8828 9.67816 32.7046 0.5 21.3828 0.5ZM31.9765 15.5683C32.3539 15.7922 32.6667 16.1101 32.8846 16.4909C33.099 16.8511 33.2207 17.2587 33.239 17.6774C33.2574 18.0961 33.1718 18.5128 32.99 18.8904L28.7953 27.2017C28.6891 27.4106 28.527 27.5861 28.3272 27.7085C28.1273 27.831 27.8974 27.8958 27.663 27.8956L16.239 27.8528C15.9524 27.8616 15.6712 27.773 15.4414 27.6016C15.2115 27.4302 15.0465 27.186 14.9731 26.9088L11.5185 13.8722L9.94452 13.8663C9.60787 13.8651 9.28551 13.7302 9.04836 13.4912C8.8112 13.2523 8.67868 12.9289 8.67993 12.5923C8.6812 12.2556 8.81614 11.9332 9.05508 11.6961C9.29401 11.4589 9.61738 11.3264 9.95403 11.3277L12.4927 11.3372C12.7793 11.3284 13.0604 11.417 13.2903 11.5884C13.5201 11.7598 13.6852 12.004 13.7585 12.2812L14.484 15.1527L30.7316 15.2135C31.1702 15.2222 31.5992 15.3445 31.9765 15.5683ZM17.4236 30.823C17.4137 31.8745 16.5532 32.7189 15.5017 32.709C14.4502 32.6991 13.6058 31.8386 13.6157 30.7871C13.6256 29.7356 14.4861 28.8912 15.5376 28.9011C16.5891 28.911 17.4335 29.7714 17.4236 30.823ZM28.1923 32.8282C29.2438 32.8381 30.1043 31.9937 30.1142 30.9422C30.1241 29.8906 29.2797 29.0302 28.2281 29.0203C27.1766 29.0104 26.3162 29.8548 26.3063 30.9063C26.2964 31.9578 27.1408 32.8183 28.1923 32.8282Z" fill="#F4F1F0"/>
</svg>
