<svg width="29" height="29" viewBox="0 0 29 29" fill="none" xmlns="http://www.w3.org/2000/svg">
<path fill-rule="evenodd" clip-rule="evenodd" d="M14.5 29C22.5081 29 29 22.5081 29 14.5C29 6.49187 22.5081 0 14.5 0C6.49187 0 0 6.49187 0 14.5C0 22.5081 6.49187 29 14.5 29ZM15.1 7C11.7 7 10 9 10 13H11.66C11.66 11.4 11.94 10.28 12.5 9.64C13.0733 9 13.94 8.68 15.1 8.68C16.0733 8.68 16.8133 8.9 17.32 9.34C17.84 9.76667 18.1 10.3067 18.1 10.96C18.1 11.3867 18.0333 11.7533 17.9 12.06C17.78 12.3533 17.5733 12.64 17.28 12.92C17 13.2 16.58 13.5533 16.02 13.98C15.1667 14.62 14.5467 15.3133 14.16 16.06C13.7867 16.7933 13.5933 17.6133 13.58 18.52H15.14C15.1533 17.72 15.3267 17.0467 15.66 16.5C15.9933 15.9533 16.4533 15.4533 17.04 15C18.08 14.1867 18.8 13.4867 19.2 12.9C19.6 12.3133 19.8 11.6 19.8 10.76C19.8 10.0933 19.6 9.47333 19.2 8.9C18.8133 8.32667 18.26 7.86667 17.54 7.52C16.82 7.17333 16.0067 7 15.1 7ZM13.34 22.6C13.62 22.8667 13.96 23 14.36 23C14.7467 23 15.0733 22.8667 15.34 22.6C15.6067 22.32 15.74 21.98 15.74 21.58C15.74 21.1933 15.6067 20.8667 15.34 20.6C15.0733 20.32 14.7467 20.18 14.36 20.18C13.96 20.18 13.62 20.32 13.34 20.6C13.0733 20.8667 12.94 21.1933 12.94 21.58C12.94 21.98 13.0733 22.32 13.34 22.6Z" fill="#F4F1F0"/>
</svg>
