<svg width="257" height="40" viewBox="0 0 257 40" fill="none" xmlns="http://www.w3.org/2000/svg">
<path d="M18.4531 2.5C8.78861 2.5 0.953125 10.3355 0.953125 20C0.953125 29.6645 8.78861 37.5 18.4531 37.5C28.1176 37.5 35.9531 29.6645 35.9531 20C35.9531 10.3355 28.1176 2.5 18.4531 2.5ZM27.0451 14.4903L24.1773 28.0274C23.9628 28.9871 23.3983 29.2242 22.5967 28.7726L18.216 25.5435L16.1047 27.5758C15.8676 27.8129 15.6757 28.0048 15.2241 28.0048L15.5289 23.5565L23.6354 16.229C23.9854 15.9242 23.5564 15.7435 23.0934 16.0484L13.0676 22.3597L8.75474 21.0161C7.81764 20.7226 7.79506 20.079 8.95796 19.6274L25.837 13.1129C26.616 12.8306 27.3047 13.3048 27.0451 14.4903Z" fill="#121212"/>
<path d="M68.5971 5.2V8.26H59.7051V34H56.6451V8.26H47.7531V5.2H68.5971ZM92.8867 8.26H75.2467V18.088L90.5467 18.052V21.112H75.2467V30.976L92.8867 30.94V34H72.1867V5.2H75.2467V5.236L92.8867 5.2V8.26ZM117.9 34H114.84V8.224H103.86V24.352C103.86 27.328 103.572 29.512 102.996 30.904C102.444 32.272 101.676 33.136 100.692 33.496C99.7317 33.832 98.3277 34 96.4797 34V30.94C97.7517 30.94 98.6637 30.82 99.2157 30.58C99.7677 30.34 100.164 29.764 100.404 28.852C100.668 27.94 100.8 26.44 100.8 24.352V5.2H117.9V34ZM142.914 8.26H125.274V18.088L140.574 18.052V21.112H125.274V30.976L142.914 30.94V34H122.214V5.2H125.274V5.236L142.914 5.2V8.26ZM149.603 8.296V34H146.507V5.2H165.371V8.296H149.603ZM172.068 34H168.972V5.2H179.7C183.132 5.2 185.976 5.896 188.232 7.288C190.512 8.68 191.652 11.044 191.652 14.38C191.652 16.468 191.088 18.172 189.96 19.492C188.832 20.812 187.368 21.76 185.568 22.336C183.768 22.912 181.812 23.2 179.7 23.2H172.068V34ZM179.7 20.176C185.484 20.176 188.376 18.22 188.376 14.308C188.376 12.268 187.572 10.744 185.964 9.736C184.356 8.728 182.268 8.224 179.7 8.224H172.068V20.176H179.7ZM216.559 34L212.887 25.504H198.559L194.923 34H191.683L204.067 5.2H207.343L219.799 34H216.559ZM199.891 22.444L211.555 22.408L205.723 8.908L199.891 22.444ZM251.582 5.2V34H248.414V12.364L239.306 34H236.03L226.562 12.184V34H223.394V5.2H226.67L237.65 30.22L248.306 5.2H251.582Z" fill="#121212"/>
</svg>
