<svg width="42" height="42" viewBox="0 0 42 42" fill="none" xmlns="http://www.w3.org/2000/svg">
<path fill-rule="evenodd" clip-rule="evenodd" d="M1.88281 21C1.88281 10.2304 10.6133 1.5 21.3828 1.5C32.1524 1.5 40.8828 10.2304 40.8828 21C40.8828 31.7696 32.1524 40.5 21.3828 40.5C10.6133 40.5 1.88281 31.7696 1.88281 21ZM21.3828 0.5C10.061 0.5 0.882812 9.67816 0.882812 21C0.882812 32.3218 10.061 41.5 21.3828 41.5C32.7046 41.5 41.8828 32.3218 41.8828 21C41.8828 9.67816 32.7046 0.5 21.3828 0.5ZM17.9544 8.62718C16.9126 9.66905 16.3273 11.0821 16.3273 12.5556C16.3273 14.029 16.9126 15.4421 17.9544 16.4839C18.9963 17.5258 20.4094 18.1111 21.8828 18.1111C23.3562 18.1111 24.7693 17.5258 25.8112 16.4839C26.8531 15.4421 27.4384 14.029 27.4384 12.5556C27.4384 11.0821 26.8531 9.66905 25.8112 8.62718C24.7693 7.58532 23.3562 7 21.8828 7C20.4094 7 18.9963 7.58532 17.9544 8.62718ZM11.4168 22.9229C12.7191 21.6205 14.4855 20.8889 16.3273 20.8889H27.4384C29.2801 20.8889 31.0465 21.6205 32.3488 22.9229C33.6512 24.2252 34.3828 25.9916 34.3828 27.8333C34.3828 28.9384 33.9438 29.9982 33.1624 30.7796C32.381 31.561 31.3212 32 30.2161 32H13.5495C12.4444 32 11.3846 31.561 10.6032 30.7796C9.8218 29.9982 9.38281 28.9384 9.38281 27.8333C9.38281 25.9916 10.1145 24.2252 11.4168 22.9229Z" fill="#F4F1F0"/>
</svg>
