<svg width="42" height="42" viewBox="0 0 42 42" fill="none" xmlns="http://www.w3.org/2000/svg">
<path fill-rule="evenodd" clip-rule="evenodd" d="M1.5 21C1.5 10.2304 10.2304 1.5 21 1.5C31.7696 1.5 40.5 10.2304 40.5 21C40.5 31.7696 31.7696 40.5 21 40.5C10.2304 40.5 1.5 31.7696 1.5 21ZM21 0.5C9.67816 0.5 0.5 9.67816 0.5 21C0.5 32.3218 9.67816 41.5 21 41.5C32.3218 41.5 41.5 32.3218 41.5 21C41.5 9.67816 32.3218 0.5 21 0.5ZM17.5716 8.62718C16.5298 9.66905 15.9444 11.0821 15.9444 12.5556C15.9444 14.029 16.5298 15.4421 17.5716 16.4839C18.6135 17.5258 20.0266 18.1111 21.5 18.1111C22.9734 18.1111 24.3865 17.5258 25.4284 16.4839C26.4702 15.4421 27.0556 14.029 27.0556 12.5556C27.0556 11.0821 26.4702 9.66905 25.4284 8.62718C24.3865 7.58532 22.9734 7 21.5 7C20.0266 7 18.6135 7.58532 17.5716 8.62718ZM11.034 22.9229C12.3363 21.6205 14.1027 20.8889 15.9444 20.8889H27.0556C28.8973 20.8889 30.6637 21.6205 31.966 22.9229C33.2684 24.2252 34 25.9916 34 27.8333C34 28.9384 33.561 29.9982 32.7796 30.7796C31.9982 31.561 30.9384 32 29.8333 32H13.1667C12.0616 32 11.0018 31.561 10.2204 30.7796C9.43899 29.9982 9 28.9384 9 27.8333C9 25.9916 9.73164 24.2252 11.034 22.9229Z" fill="url(#paint0_linear_1672_8286)"/>
<defs>
<linearGradient id="paint0_linear_1672_8286" x1="2.07741" y1="28.5517" x2="10.5188" y2="7.33333" gradientUnits="userSpaceOnUse">
<stop stop-color="#F44242"/>
<stop offset="1" stop-color="#569EF0"/>
</linearGradient>
</defs>
</svg>
