<svg width="121" height="121" viewBox="0 0 121 121" fill="none" xmlns="http://www.w3.org/2000/svg">
<path d="M56.9165 7.74087C58.5585 5.06909 62.4415 5.06909 64.0835 7.74087C66.0775 10.9855 70.4964 11.6853 73.3954 9.21573C75.7826 7.18212 79.4756 8.38203 80.2116 11.4304C81.1053 15.1324 85.0917 17.1635 88.6119 15.7107C91.5108 14.5143 94.6522 16.7966 94.4101 19.9233C94.1162 23.7202 97.2798 26.8838 101.077 26.5899C104.203 26.3478 106.486 29.4892 105.289 32.388C103.836 35.9083 105.868 39.8947 109.57 40.7885C112.618 41.5244 113.818 45.2174 111.784 47.6046C109.315 50.5036 110.015 54.9225 113.259 56.9165C115.931 58.5585 115.931 62.4415 113.259 64.0835C110.015 66.0775 109.315 70.4964 111.784 73.3954C113.818 75.7826 112.618 79.4756 109.57 80.2116C105.868 81.1053 103.836 85.0917 105.289 88.6119C106.486 91.5108 104.203 94.6522 101.077 94.4101C97.2798 94.1162 94.1162 97.2798 94.4101 101.077C94.6522 104.203 91.5108 106.486 88.6119 105.289C85.0917 103.836 81.1053 105.868 80.2116 109.57C79.4756 112.618 75.7826 113.818 73.3954 111.784C70.4964 109.315 66.0775 110.015 64.0835 113.259C62.4415 115.931 58.5585 115.931 56.9165 113.259C54.9225 110.015 50.5036 109.315 47.6046 111.784C45.2174 113.818 41.5244 112.618 40.7885 109.57C39.8947 105.868 35.9083 103.836 32.388 105.289C29.4892 106.486 26.3478 104.203 26.5899 101.077C26.8838 97.2798 23.7202 94.1162 19.9233 94.4101C16.7966 94.6522 14.5143 91.5108 15.7107 88.6119C17.1635 85.0917 15.1324 81.1053 11.4304 80.2116C8.38203 79.4756 7.18211 75.7826 9.21573 73.3954C11.6853 70.4964 10.9855 66.0775 7.74087 64.0835C5.06909 62.4415 5.06909 58.5585 7.74087 56.9165C10.9855 54.9225 11.6853 50.5036 9.21573 47.6046C7.18211 45.2174 8.38203 41.5244 11.4304 40.7885C15.1324 39.8947 17.1635 35.9083 15.7107 32.388C14.5143 29.4892 16.7966 26.3478 19.9233 26.5899C23.7202 26.8838 26.8838 23.7202 26.5899 19.9233C26.3478 16.7966 29.4892 14.5143 32.388 15.7107C35.9083 17.1635 39.8947 15.1324 40.7885 11.4304C41.5244 8.38203 45.2174 7.18211 47.6046 9.21573C50.5036 11.6853 54.9225 10.9855 56.9165 7.74087Z" stroke="#121212" stroke-width="2"/>
<path d="M53.3402 18.8653C57.2904 14.901 63.7099 14.901 67.6601 18.8653C70.0971 21.3111 73.6139 22.3437 76.9863 21.6037C82.4527 20.4043 87.8532 23.875 89.033 29.3457C89.7608 32.7207 92.1611 35.4907 95.3982 36.6915C100.645 38.6379 103.312 44.4773 101.347 49.7174C100.135 52.9501 100.656 56.5781 102.73 59.3383C106.092 63.8125 105.178 70.1667 100.692 73.5125C97.9246 75.5766 96.402 78.9107 96.6544 82.354C97.0637 87.9355 92.8597 92.787 87.2769 93.1763C83.8326 93.4164 80.7492 95.398 79.1 98.4313C76.4267 103.348 70.2672 105.157 65.3601 102.466C62.3328 100.806 58.6675 100.806 55.6402 102.466C50.7331 105.157 44.5736 103.348 41.9003 98.4313C40.2511 95.398 37.1677 93.4164 33.7234 93.1763C28.1406 92.787 23.9366 87.9355 24.3459 82.354C24.5983 78.9107 23.0757 75.5766 20.3081 73.5125C15.8219 70.1667 14.9083 63.8125 18.2701 59.3383C20.3442 56.5781 20.8658 52.9501 19.6534 49.7174C17.6883 44.4773 20.3551 38.6379 25.6021 36.6915C28.8392 35.4907 31.2395 32.7207 31.9673 29.3457C33.1471 23.875 38.5476 20.4043 44.014 21.6037C47.3864 22.3437 50.9032 21.3111 53.3402 18.8653Z" fill="url(#paint0_radial_1649_6366)"/>
<defs>
<radialGradient id="paint0_radial_1649_6366" cx="0" cy="0" r="1" gradientUnits="userSpaceOnUse" gradientTransform="translate(132.314 -15.6365) rotate(130.81) scale(256.951 336.302)">
<stop stop-color="#0F5881"/>
<stop offset="0.369792" stop-color="#1EA49C"/>
<stop offset="0.666667" stop-color="#76CE75"/>
<stop offset="0.911458" stop-color="#ECF39F"/>
</radialGradient>
</defs>
</svg>
