<svg width="277" height="40" viewBox="0 0 277 40" fill="none" xmlns="http://www.w3.org/2000/svg">
<path opacity="0.6" fill-rule="evenodd" clip-rule="evenodd" d="M2.92213 4.96152C0.460938 7.42304 0.460938 11.38 0.460938 19.2987V20.6967C0.460938 28.6153 0.460938 32.577 2.92213 35.0385C5.38332 37.5 9.3398 37.5 17.2621 37.5H18.6598C26.5774 37.5 30.5386 37.5 32.9997 35.0385C35.4609 32.577 35.4609 28.62 35.4609 20.6967V19.2987C35.4609 11.38 35.4609 7.41839 32.9997 4.95687C30.5386 2.5 26.5774 2.5 18.6598 2.5H17.2621C9.3398 2.5 5.38332 2.5 2.92213 4.96152ZM6.3678 13.1495C6.55819 22.2479 11.1091 27.7189 19.0824 27.7189H19.5328V22.5126C22.4631 22.8052 24.6781 24.9463 25.5697 27.7189H29.712C28.5742 23.5762 25.5837 21.2865 23.7169 20.4133C25.5837 19.3359 28.2074 16.7071 28.8343 13.1495H25.0729C24.2556 16.0383 21.8362 18.6624 19.5328 18.9086V13.1495H15.7714V23.2418C13.4402 22.6566 10.4915 19.8282 10.3614 13.1495H6.3678Z" fill="#F4F1F0"/>
<path opacity="0.6" d="M58.1689 5.2C61.0009 5.176 63.1249 5.764 64.5409 6.964C65.9569 8.164 66.6649 9.772 66.6649 11.788C66.6649 13.228 66.2089 14.476 65.2969 15.532C64.3849 16.564 63.2329 17.176 61.8409 17.368C64.3129 17.584 66.3049 18.352 67.8169 19.672C69.3289 20.968 70.0849 22.744 70.0849 25C70.0849 28.024 68.9809 30.28 66.7729 31.768C64.5889 33.256 61.7209 34 58.1689 34H47.2609V5.2H58.1689ZM58.1689 15.964C59.9689 15.964 61.3129 15.616 62.2009 14.92C63.1129 14.2 63.5689 13.24 63.5689 12.04C63.5689 10.888 63.1129 9.976 62.2009 9.304C61.3129 8.632 59.9689 8.296 58.1689 8.296H50.3569V15.964H58.1689ZM58.1689 30.904C61.2409 30.904 63.4489 30.34 64.7929 29.212C66.1369 28.06 66.8089 26.608 66.8089 24.856C66.8089 23.176 66.1129 21.784 64.7209 20.68C63.3289 19.576 61.1449 19.024 58.1689 19.024H50.3569V30.904H58.1689ZM94.6864 5.2L81.9784 19.6L94.6864 34H90.7624L79.5304 21.112H76.7584V34H73.6984V5.2H76.7584V18.088L79.5304 18.052L90.7624 5.2H94.6864ZM95.3898 19.456C95.3898 16.672 95.8818 14.212 96.8658 12.076C97.8738 9.916 99.3498 8.236 101.294 7.036C103.262 5.812 105.626 5.2 108.386 5.2C111.146 5.2 113.498 5.812 115.442 7.036C117.386 8.236 118.85 9.916 119.834 12.076C120.842 14.212 121.346 16.672 121.346 19.456C121.346 22.264 120.842 24.772 119.834 26.98C118.85 29.164 117.374 30.88 115.406 32.128C113.462 33.376 111.122 34 108.386 34C105.626 34 103.262 33.376 101.294 32.128C99.3498 30.88 97.8738 29.164 96.8658 26.98C95.8818 24.772 95.3898 22.264 95.3898 19.456ZM98.5578 19.456C98.5578 21.64 98.9418 23.596 99.7098 25.324C100.478 27.052 101.594 28.408 103.058 29.392C104.546 30.352 106.322 30.832 108.386 30.832C110.426 30.832 112.178 30.34 113.642 29.356C115.13 28.372 116.258 27.028 117.026 25.324C117.794 23.596 118.178 21.64 118.178 19.456C118.178 17.272 117.794 15.352 117.026 13.696C116.258 12.016 115.142 10.708 113.678 9.772C112.214 8.836 110.45 8.368 108.386 8.368C106.322 8.368 104.546 8.836 103.058 9.772C101.594 10.708 100.478 12.016 99.7098 13.696C98.9418 15.352 98.5578 17.272 98.5578 19.456ZM143.316 5.2H146.376V34H143.316V21.112H128.016V34H124.956V5.2H128.016V18.088L143.316 18.052V5.2ZM170.832 5.2V8.26H161.94V34H158.88V8.26H149.988V5.2H170.832ZM196.414 34L192.742 25.504H178.414L174.778 34H171.538L183.922 5.2H187.198L199.654 34H196.414ZM179.746 22.444L191.41 22.408L185.578 8.908L179.746 22.444ZM224.237 5.2L211.529 19.6L224.237 34H220.313L209.081 21.112H206.309V34H203.249V5.2H206.309V18.088L209.081 18.052L220.313 5.2H224.237ZM248.667 5.2V8.26H239.775V34H236.715V8.26H227.823V5.2H248.667ZM272.957 8.26H255.317V18.088L270.617 18.052V21.112H255.317V30.976L272.957 30.94V34H252.257V5.2H255.317V5.236L272.957 5.2V8.26Z" fill="#F4F1F0"/>
</svg>
