<svg width="325" height="42" viewBox="0 0 325 42" fill="none" xmlns="http://www.w3.org/2000/svg">
<g opacity="0.6">
<path d="M17.4728 2.5C17.27 5.24125 17.2824 8.01985 16.8174 10.7157C15.9334 15.8298 13.0567 18.4341 7.87884 19.0405C5.41589 19.3291 2.92364 19.3723 0.445312 19.5268C0.445312 18.99 0.621081 17.5816 0.65184 17.4037C1.7416 11.1258 5.17787 6.6203 10.9702 4.00135C12.5118 3.3056 16.936 2.5 17.4728 2.5Z" fill="#F2F2F2"/>
<path d="M0.445312 20.4473C2.61825 20.5989 4.8007 20.6706 6.96045 20.9299C8.39223 21.1013 9.84304 21.4015 11.1965 21.8893C14.0791 22.9285 15.9385 25.0831 16.5164 28.0397C17.114 31.0988 17.33 34.2333 17.7321 37.4924C14.9718 37.5751 12.7022 36.9724 10.5725 35.9273C5.03652 33.2117 1.69912 28.8058 0.654037 22.6993C0.616686 22.4803 0.445312 20.9848 0.445312 20.4473Z" fill="#F2F2F2"/>
<path d="M21.9992 2.95944C29.3105 4.57797 35.1328 11.3817 35.4594 18.6936C35.4697 18.9199 35.4609 19.1469 35.4609 19.5248C31.5632 19.3872 27.6722 19.5673 24.055 17.8873C21.0332 16.4833 19.6029 13.8571 19.1328 10.7181C18.7937 8.45292 18.7409 6.14524 18.5535 3.85659C18.5161 3.40325 18.4487 2.95285 18.3945 2.50098C18.9314 2.50025 21.3335 2.8115 21.9992 2.95944Z" fill="#F2F2F2"/>
<path d="M18.375 37.4309C18.6218 34.675 18.7126 31.993 19.1315 29.3631C19.8815 24.6532 22.5099 21.9801 27.1905 21.2038C29.8541 20.7622 32.5778 20.6802 35.2729 20.4355C35.9914 28.1166 28.3513 37.6513 18.375 37.4309Z" fill="#F2F2F2"/>
</g>
<path opacity="0.6" d="M69.9409 5.2V34H66.8449V23.2H60.4009L51.1489 34H47.3329L56.7289 23.056C53.9689 22.744 51.7009 21.892 49.9249 20.5C48.1489 19.084 47.2609 17.044 47.2609 14.38C47.2609 11.044 48.3889 8.68 50.6449 7.288C52.9249 5.896 55.7809 5.2 59.2129 5.2H69.9409ZM66.8449 8.224H59.2129C56.6449 8.224 54.5569 8.728 52.9489 9.736C51.3409 10.744 50.5369 12.268 50.5369 14.308C50.5369 16.42 51.3169 17.932 52.8769 18.844C54.4609 19.732 56.5729 20.176 59.2129 20.176H66.8449V8.224ZM92.9022 5.2H95.9622V34H92.9022V21.112H77.6022V34H74.5422V5.2H77.6022V18.088L92.9022 18.052V5.2ZM130.353 41.2H127.293V34L105.225 33.964C104.865 33.988 104.301 34 103.533 34H102.633V41.2H99.5734V30.94H103.533C104.805 30.94 105.717 30.82 106.269 30.58C106.821 30.34 107.217 29.764 107.457 28.852C107.721 27.94 107.853 26.44 107.853 24.352V5.2H124.953V30.94H130.353V41.2ZM121.893 8.224H110.913V24.352C110.913 27.304 110.625 29.5 110.049 30.94H121.893V8.224ZM154.656 8.26H137.016V18.088L152.316 18.052V21.112H137.016V30.976L154.656 30.94V34H133.956V5.2H137.016V5.236L154.656 5.2V8.26ZM179.237 5.2L166.529 19.6L179.237 34H175.313L164.081 21.112H161.309V34H158.249V5.2H161.309V18.088L164.081 18.052L175.313 5.2H179.237ZM204.565 27.016C203.533 29.248 202.033 30.976 200.065 32.2C198.097 33.4 195.697 34 192.865 34C190.105 34 187.753 33.376 185.809 32.128C183.865 30.88 182.401 29.164 181.417 26.98C180.433 24.772 179.941 22.264 179.941 19.456C179.941 16.672 180.433 14.212 181.417 12.076C182.401 9.916 183.865 8.236 185.809 7.036C187.753 5.812 190.105 5.2 192.865 5.2C195.745 5.2 198.169 5.812 200.137 7.036C202.105 8.236 203.617 10 204.673 12.328L201.973 14.236C200.365 10.276 197.329 8.296 192.865 8.296C190.921 8.296 189.205 8.752 187.717 9.664C186.253 10.576 185.113 11.872 184.297 13.552C183.481 15.232 183.073 17.2 183.073 19.456C183.073 21.808 183.481 23.848 184.297 25.576C185.113 27.28 186.253 28.6 187.717 29.536C189.205 30.448 190.921 30.904 192.865 30.904C197.209 30.928 200.221 28.996 201.901 25.108L204.565 27.016ZM247.705 41.2H244.645V34L222.577 33.964C222.217 33.988 221.653 34 220.885 34H219.985V41.2H216.925V30.94H220.885C222.157 30.94 223.069 30.82 223.621 30.58C224.173 30.34 224.569 29.764 224.809 28.852C225.073 27.94 225.205 26.44 225.205 24.352V5.2H242.305V30.94H247.705V41.2ZM239.245 8.224H228.265V24.352C228.265 27.304 227.977 29.5 227.401 30.94H239.245V8.224ZM264.131 18.376C266.147 18.544 267.743 19.192 268.919 20.32C270.119 21.424 270.719 23.08 270.719 25.288C270.719 28.24 269.723 30.436 267.731 31.876C265.739 33.292 263.219 34 260.171 34C256.955 34 254.375 33.136 252.431 31.408C250.487 29.68 249.515 27.052 249.515 23.524H252.611C252.611 25.732 253.235 27.52 254.483 28.888C255.731 30.232 257.627 30.904 260.171 30.904C262.547 30.904 264.347 30.376 265.571 29.32C266.819 28.264 267.443 26.896 267.443 25.216C267.443 23.56 266.891 22.288 265.787 21.4C264.683 20.488 263.027 20.032 260.819 20.032H258.191V16.972H260.819C262.619 16.972 263.999 16.6 264.959 15.856C265.943 15.088 266.435 14.032 266.435 12.688C266.435 11.176 265.931 10.072 264.923 9.376C263.939 8.656 262.355 8.296 260.171 8.296C257.939 8.296 256.259 8.74 255.131 9.628C254.027 10.516 253.475 11.824 253.475 13.552H250.379C250.379 10.816 251.171 8.74 252.755 7.324C254.339 5.884 256.811 5.176 260.171 5.2C263.435 5.176 265.811 5.776 267.299 7C268.787 8.2 269.531 9.988 269.531 12.364C269.531 13.42 269.267 14.392 268.739 15.28C268.235 16.144 267.563 16.852 266.723 17.404C265.883 17.932 265.019 18.256 264.131 18.376ZM295.07 8.26H277.43V18.088L292.73 18.052V21.112H277.43V30.976L295.07 30.94V34H274.37V5.2H277.43V5.236L295.07 5.2V8.26ZM317.023 5.2H320.083V34H317.023V21.112H301.723V34H298.663V5.2H301.723V18.088L317.023 18.052V5.2Z" fill="#F4F1F0"/>
</svg>
