<svg width="188" height="43" viewBox="0 0 188 43" fill="none" xmlns="http://www.w3.org/2000/svg">
<path d="M54.4456 6.22581C52.8502 3.51803 48.1445 2.99892 41.1703 4.75267C37.7503 2.03802 33.5793 0.404558 29.203 0.0659073C24.8266 -0.272744 20.4485 0.699174 16.6411 2.85456C12.8338 5.00995 9.77451 8.24848 7.8633 12.1466C5.9521 16.0448 5.27795 20.4211 5.92903 24.7033C0.860701 29.7751 -1.05 34.0566 0.552524 36.7737C1.53158 38.4363 3.63429 39.2781 6.71606 39.2781C8.68733 39.243 10.649 38.9977 12.5667 38.5462C12.9792 38.455 13.4011 38.3544 13.8278 38.2469C17.0317 40.7901 20.8992 42.388 24.9842 42.8562C29.0692 43.3244 33.2052 42.6438 36.9149 40.8929C40.6245 39.1421 43.7568 36.3923 45.9501 32.9609C48.1434 29.5295 49.3085 25.5563 49.3109 21.4998C49.3125 20.4253 49.2333 19.3522 49.0738 18.2892C52.1011 15.2494 54.1255 12.378 54.7632 9.9952C55.1639 8.5314 55.0548 7.26403 54.4456 6.22581ZM27.5014 1.85782C32.1048 1.86333 36.5646 3.43949 40.1241 6.31892C43.6836 9.19835 46.1237 13.2037 47.0304 17.6556C43.1971 21.3244 37.8325 25.2504 31.7424 28.7018C25.2683 32.3707 19.2233 34.8399 14.2925 36.1845C11.2741 33.5397 9.14206 30.0524 8.17904 26.185C7.21602 22.3176 7.46753 18.2528 8.90022 14.5296C10.3329 10.8064 12.8791 7.60074 16.2011 5.33765C19.5232 3.07456 23.4641 1.86098 27.5014 1.85782ZM2.19534 35.8337C1.18784 34.1267 2.78799 30.7829 6.40315 26.934C7.38336 30.6371 9.34736 34.0153 12.0926 36.7199C6.84408 37.8681 3.19573 37.536 2.19534 35.8337ZM27.5014 41.1417C23.4308 41.1457 19.4578 39.9128 16.1226 37.6108C21.2383 36.0722 26.987 33.5492 32.6812 30.3246C38.4299 27.065 43.4934 23.4359 47.3385 19.9331C47.3812 20.4499 47.4097 20.9713 47.4097 21.4998C47.4034 26.7064 45.3041 31.6981 41.572 35.3802C37.84 39.0623 32.7799 41.1343 27.5014 41.1417ZM52.9331 9.51116C52.4282 11.3818 50.8992 13.6383 48.6068 16.0725C47.6205 12.3609 45.6464 8.97668 42.8889 6.27024C48.0687 5.14317 51.8 5.46118 52.8051 7.16582C53.1512 7.75741 53.1963 8.54543 52.9331 9.51116Z" fill="url(#paint0_linear_1672_8272)"/>
<path d="M80.2191 24.5292C79.6457 25.7692 78.8124 26.7292 77.7191 27.4092C76.6257 28.0758 75.2924 28.4092 73.7191 28.4092C72.1857 28.4092 70.8791 28.0625 69.7991 27.3692C68.7191 26.6758 67.9057 25.7225 67.3591 24.5092C66.8124 23.2825 66.5391 21.8892 66.5391 20.3292C66.5391 18.7825 66.8124 17.4158 67.3591 16.2292C67.9057 15.0292 68.7191 14.0958 69.7991 13.4292C70.8791 12.7492 72.1857 12.4092 73.7191 12.4092C75.3191 12.4092 76.6657 12.7492 77.7591 13.4292C78.8524 14.0958 79.6924 15.0758 80.2791 16.3692L78.7791 17.4292C77.8857 15.2292 76.1991 14.1292 73.7191 14.1292C72.6391 14.1292 71.6857 14.3825 70.8591 14.8892C70.0457 15.3958 69.4124 16.1158 68.9591 17.0492C68.5057 17.9825 68.2791 19.0758 68.2791 20.3292C68.2791 21.6358 68.5057 22.7692 68.9591 23.7292C69.4124 24.6758 70.0457 25.4092 70.8591 25.9292C71.6857 26.4358 72.6391 26.6892 73.7191 26.6892C76.1324 26.7025 77.8057 25.6292 78.7391 23.4692L80.2191 24.5292ZM82.2813 20.3292C82.2813 18.7825 82.5546 17.4158 83.1013 16.2292C83.6613 15.0292 84.4813 14.0958 85.5613 13.4292C86.6546 12.7492 87.9679 12.4092 89.5013 12.4092C91.0346 12.4092 92.3413 12.7492 93.4213 13.4292C94.5013 14.0958 95.3146 15.0292 95.8613 16.2292C96.4213 17.4158 96.7013 18.7825 96.7013 20.3292C96.7013 21.8892 96.4213 23.2825 95.8613 24.5092C95.3146 25.7225 94.4946 26.6758 93.4013 27.3692C92.3213 28.0625 91.0213 28.4092 89.5013 28.4092C87.9679 28.4092 86.6546 28.0625 85.5613 27.3692C84.4813 26.6758 83.6613 25.7225 83.1013 24.5092C82.5546 23.2825 82.2813 21.8892 82.2813 20.3292ZM84.0413 20.3292C84.0413 21.5425 84.2546 22.6292 84.6813 23.5892C85.1079 24.5492 85.7279 25.3025 86.5413 25.8492C87.3679 26.3825 88.3546 26.6492 89.5013 26.6492C90.6346 26.6492 91.6079 26.3758 92.4213 25.8292C93.2479 25.2825 93.8746 24.5358 94.3013 23.5892C94.7279 22.6292 94.9413 21.5425 94.9413 20.3292C94.9413 19.1158 94.7279 18.0492 94.3013 17.1292C93.8746 16.1958 93.2546 15.4692 92.4413 14.9492C91.6279 14.4292 90.6479 14.1692 89.5013 14.1692C88.3546 14.1692 87.3679 14.4292 86.5413 14.9492C85.7279 15.4692 85.1079 16.1958 84.6813 17.1292C84.2546 18.0492 84.0413 19.1158 84.0413 20.3292ZM100.207 23.3492C100.74 24.5358 101.38 25.3892 102.127 25.9092C102.887 26.4292 103.814 26.6892 104.907 26.6892C106.08 26.6892 106.994 26.4825 107.647 26.0692C108.314 25.6558 108.647 25.0025 108.647 24.1092C108.647 22.4958 107.367 21.4292 104.807 20.9092L103.807 20.6892C102.22 20.3692 101.014 19.8625 100.187 19.1692C99.3604 18.4758 98.947 17.5092 98.947 16.2692C98.947 15.4825 99.1804 14.7958 99.647 14.2092C100.114 13.6225 100.734 13.1758 101.507 12.8692C102.294 12.5625 103.147 12.4092 104.067 12.4092C105.574 12.4092 106.774 12.7492 107.667 13.4292C108.574 14.1092 109.327 15.1358 109.927 16.5092L108.527 17.3692C108.02 16.2358 107.4 15.4092 106.667 14.8892C105.947 14.3692 105.067 14.1092 104.027 14.1092C103.014 14.1092 102.194 14.3025 101.567 14.6892C100.954 15.0758 100.647 15.6425 100.647 16.3892C100.647 17.0825 100.934 17.6358 101.507 18.0492C102.08 18.4625 102.94 18.8025 104.087 19.0692L105.047 19.2892C106.967 19.7292 108.334 20.3358 109.147 21.1092C109.96 21.8825 110.36 22.9092 110.347 24.1892C110.334 25.5758 109.827 26.6292 108.827 27.3492C107.827 28.0558 106.507 28.4092 104.867 28.4092C103.28 28.4092 102.007 28.0625 101.047 27.3692C100.1 26.6625 99.3204 25.6292 98.707 24.2692L100.207 23.3492ZM128 12.4092V28.4092H126.24V16.3892L121.18 28.4092H119.36L114.1 16.2892V28.4092H112.34V12.4092H114.16L120.26 26.3092L126.18 12.4092H128ZM129.996 20.3292C129.996 18.7825 130.269 17.4158 130.816 16.2292C131.376 15.0292 132.196 14.0958 133.276 13.4292C134.369 12.7492 135.683 12.4092 137.216 12.4092C138.749 12.4092 140.056 12.7492 141.136 13.4292C142.216 14.0958 143.029 15.0292 143.576 16.2292C144.136 17.4158 144.416 18.7825 144.416 20.3292C144.416 21.8892 144.136 23.2825 143.576 24.5092C143.029 25.7225 142.209 26.6758 141.116 27.3692C140.036 28.0625 138.736 28.4092 137.216 28.4092C135.683 28.4092 134.369 28.0625 133.276 27.3692C132.196 26.6758 131.376 25.7225 130.816 24.5092C130.269 23.2825 129.996 21.8892 129.996 20.3292ZM131.756 20.3292C131.756 21.5425 131.969 22.6292 132.396 23.5892C132.823 24.5492 133.443 25.3025 134.256 25.8492C135.083 26.3825 136.069 26.6492 137.216 26.6492C138.349 26.6492 139.323 26.3758 140.136 25.8292C140.963 25.2825 141.589 24.5358 142.016 23.5892C142.443 22.6292 142.656 21.5425 142.656 20.3292C142.656 19.1158 142.443 18.0492 142.016 17.1292C141.589 16.1958 140.969 15.4692 140.156 14.9492C139.343 14.4292 138.363 14.1692 137.216 14.1692C136.069 14.1692 135.083 14.4292 134.256 14.9492C133.443 15.4692 132.823 16.1958 132.396 17.1292C131.969 18.0492 131.756 19.1158 131.756 20.3292ZM148.142 28.4092H146.422V12.4092H152.382C154.289 12.4092 155.869 12.7958 157.122 13.5692C158.389 14.3425 159.022 15.6558 159.022 17.5092C159.022 18.6692 158.709 19.6158 158.082 20.3492C157.455 21.0825 156.642 21.6092 155.642 21.9292C154.642 22.2492 153.555 22.4092 152.382 22.4092H148.142V28.4092ZM152.382 20.7292C155.595 20.7292 157.202 19.6425 157.202 17.4692C157.202 16.3358 156.755 15.4892 155.862 14.9292C154.969 14.3692 153.809 14.0892 152.382 14.0892H148.142V20.7292H152.382ZM172.531 14.1092H162.731V19.5692L171.231 19.5492V21.2492H162.731V26.7292L172.531 26.7092V28.4092H161.031V12.4092H162.731V12.4292L172.531 12.4092V14.1092ZM186.107 12.4092V14.1092H181.167V28.4092H179.467V14.1092H174.527V12.4092H186.107Z" fill="url(#paint1_linear_1672_8272)"/>
<defs>
<linearGradient id="paint0_linear_1672_8272" x1="2.11604" y1="29.42" x2="9.42592" y2="5.9182" gradientUnits="userSpaceOnUse">
<stop stop-color="#F44242"/>
<stop offset="1" stop-color="#569EF0"/>
</linearGradient>
<linearGradient id="paint1_linear_1672_8272" x1="70.2328" y1="24.8297" x2="71.3519" y2="10.5309" gradientUnits="userSpaceOnUse">
<stop stop-color="#F44242"/>
<stop offset="1" stop-color="#569EF0"/>
</linearGradient>
</defs>
</svg>
