<svg width="188" height="47" viewBox="0 0 188 47" fill="none" xmlns="http://www.w3.org/2000/svg">
<path d="M54.8284 7.04366C53.233 4.173 48.5274 3.62266 41.5531 5.4819C38.1331 2.60396 33.9622 0.872252 29.5858 0.513231C25.2094 0.15421 20.8313 1.18459 17.024 3.46962C13.2166 5.75466 10.1573 9.18798 8.24612 13.3206C6.33491 17.4532 5.66076 22.0928 6.31184 26.6325C1.24351 32.0094 -0.667184 36.5485 0.935336 39.429C1.91439 41.1916 4.01711 42.084 7.09888 42.084C9.07014 42.0469 11.0318 41.7867 12.9495 41.3081C13.362 41.2114 13.7839 41.1048 14.2107 40.9908C17.4145 43.687 21.282 45.381 25.367 45.8774C29.452 46.3737 33.588 45.6522 37.2977 43.796C41.0074 41.9398 44.1396 39.0246 46.3329 35.3868C48.5262 31.749 49.6913 27.5368 49.6937 23.2363C49.6953 22.0972 49.6161 20.9596 49.4566 19.8327C52.4839 16.61 54.5084 13.5658 55.146 11.0398C55.5467 9.48793 55.4376 8.14432 54.8284 7.04366ZM27.8842 2.41292C32.4877 2.41876 36.9474 4.08973 40.5069 7.14236C44.0664 10.195 46.5065 14.4413 47.4132 19.1609C43.5799 23.0504 38.2153 27.2126 32.1252 30.8716C25.6511 34.7611 19.6061 37.3789 14.6753 38.8043C11.6569 36.0005 9.52487 32.3034 8.56185 28.2034C7.59884 24.1033 7.85034 19.794 9.28303 15.8469C10.7157 11.8998 13.2619 8.50128 16.5839 6.10207C19.906 3.70286 23.8469 2.41628 27.8842 2.41292ZM2.57816 38.4325C1.57066 36.6228 3.17081 33.0779 6.78596 28.9975C7.76617 32.9233 9.73017 36.5046 12.4754 39.372C7.22689 40.5892 3.57855 40.2372 2.57816 38.4325ZM27.8842 44.0598C23.8136 44.064 19.8406 42.7569 16.5054 40.3165C21.6211 38.6853 27.3698 36.0105 33.064 32.592C38.8127 29.1363 43.8762 25.2889 47.7213 21.5754C47.764 22.1233 47.7925 22.6761 47.7925 23.2363C47.7862 28.7562 45.6869 34.0481 41.9548 37.9517C38.2228 41.8553 33.1627 44.0519 27.8842 44.0598ZM53.3159 10.5266C52.811 12.5098 51.282 14.902 48.9896 17.4826C48.0033 13.5477 46.0292 9.95999 43.2717 7.09076C48.4515 5.89589 52.1828 6.23303 53.1879 8.0402C53.534 8.66739 53.5791 9.5028 53.3159 10.5266Z" fill="#F4F1F0"/>
<path d="M80.6019 23.5292C80.0285 24.7692 79.1952 25.7292 78.1019 26.4092C77.0085 27.0758 75.6752 27.4092 74.1019 27.4092C72.5685 27.4092 71.2619 27.0625 70.1819 26.3692C69.1019 25.6758 68.2885 24.7225 67.7419 23.5092C67.1952 22.2825 66.9219 20.8892 66.9219 19.3292C66.9219 17.7825 67.1952 16.4158 67.7419 15.2292C68.2885 14.0292 69.1019 13.0958 70.1819 12.4292C71.2619 11.7492 72.5685 11.4092 74.1019 11.4092C75.7019 11.4092 77.0485 11.7492 78.1419 12.4292C79.2352 13.0958 80.0752 14.0758 80.6619 15.3692L79.1619 16.4292C78.2685 14.2292 76.5819 13.1292 74.1019 13.1292C73.0219 13.1292 72.0685 13.3825 71.2419 13.8892C70.4285 14.3958 69.7952 15.1158 69.3419 16.0492C68.8885 16.9825 68.6619 18.0758 68.6619 19.3292C68.6619 20.6358 68.8885 21.7692 69.3419 22.7292C69.7952 23.6758 70.4285 24.4092 71.2419 24.9292C72.0685 25.4358 73.0219 25.6892 74.1019 25.6892C76.5152 25.7025 78.1885 24.6292 79.1219 22.4692L80.6019 23.5292ZM82.6641 19.3292C82.6641 17.7825 82.9374 16.4158 83.4841 15.2292C84.0441 14.0292 84.8641 13.0958 85.9441 12.4292C87.0374 11.7492 88.3507 11.4092 89.8841 11.4092C91.4174 11.4092 92.7241 11.7492 93.8041 12.4292C94.8841 13.0958 95.6974 14.0292 96.2441 15.2292C96.8041 16.4158 97.0841 17.7825 97.0841 19.3292C97.0841 20.8892 96.8041 22.2825 96.2441 23.5092C95.6974 24.7225 94.8774 25.6758 93.7841 26.3692C92.7041 27.0625 91.4041 27.4092 89.8841 27.4092C88.3507 27.4092 87.0374 27.0625 85.9441 26.3692C84.8641 25.6758 84.0441 24.7225 83.4841 23.5092C82.9374 22.2825 82.6641 20.8892 82.6641 19.3292ZM84.4241 19.3292C84.4241 20.5425 84.6374 21.6292 85.0641 22.5892C85.4907 23.5492 86.1107 24.3025 86.9241 24.8492C87.7507 25.3825 88.7374 25.6492 89.8841 25.6492C91.0174 25.6492 91.9907 25.3758 92.8041 24.8292C93.6307 24.2825 94.2574 23.5358 94.6841 22.5892C95.1107 21.6292 95.3241 20.5425 95.3241 19.3292C95.3241 18.1158 95.1107 17.0492 94.6841 16.1292C94.2574 15.1958 93.6374 14.4692 92.8241 13.9492C92.0107 13.4292 91.0307 13.1692 89.8841 13.1692C88.7374 13.1692 87.7507 13.4292 86.9241 13.9492C86.1107 14.4692 85.4907 15.1958 85.0641 16.1292C84.6374 17.0492 84.4241 18.1158 84.4241 19.3292ZM100.59 22.3492C101.123 23.5358 101.763 24.3892 102.51 24.9092C103.27 25.4292 104.197 25.6892 105.29 25.6892C106.463 25.6892 107.377 25.4825 108.03 25.0692C108.697 24.6558 109.03 24.0025 109.03 23.1092C109.03 21.4958 107.75 20.4292 105.19 19.9092L104.19 19.6892C102.603 19.3692 101.397 18.8625 100.57 18.1692C99.7432 17.4758 99.3298 16.5092 99.3298 15.2692C99.3298 14.4825 99.5632 13.7958 100.03 13.2092C100.497 12.6225 101.117 12.1758 101.89 11.8692C102.677 11.5625 103.53 11.4092 104.45 11.4092C105.957 11.4092 107.157 11.7492 108.05 12.4292C108.957 13.1092 109.71 14.1358 110.31 15.5092L108.91 16.3692C108.403 15.2358 107.783 14.4092 107.05 13.8892C106.33 13.3692 105.45 13.1092 104.41 13.1092C103.397 13.1092 102.577 13.3025 101.95 13.6892C101.337 14.0758 101.03 14.6425 101.03 15.3892C101.03 16.0825 101.317 16.6358 101.89 17.0492C102.463 17.4625 103.323 17.8025 104.47 18.0692L105.43 18.2892C107.35 18.7292 108.717 19.3358 109.53 20.1092C110.343 20.8825 110.743 21.9092 110.73 23.1892C110.717 24.5758 110.21 25.6292 109.21 26.3492C108.21 27.0558 106.89 27.4092 105.25 27.4092C103.663 27.4092 102.39 27.0625 101.43 26.3692C100.483 25.6625 99.7032 24.6292 99.0898 23.2692L100.59 22.3492ZM128.383 11.4092V27.4092H126.623V15.3892L121.563 27.4092H119.743L114.483 15.2892V27.4092H112.723V11.4092H114.543L120.643 25.3092L126.563 11.4092H128.383ZM130.379 19.3292C130.379 17.7825 130.652 16.4158 131.199 15.2292C131.759 14.0292 132.579 13.0958 133.659 12.4292C134.752 11.7492 136.066 11.4092 137.599 11.4092C139.132 11.4092 140.439 11.7492 141.519 12.4292C142.599 13.0958 143.412 14.0292 143.959 15.2292C144.519 16.4158 144.799 17.7825 144.799 19.3292C144.799 20.8892 144.519 22.2825 143.959 23.5092C143.412 24.7225 142.592 25.6758 141.499 26.3692C140.419 27.0625 139.119 27.4092 137.599 27.4092C136.066 27.4092 134.752 27.0625 133.659 26.3692C132.579 25.6758 131.759 24.7225 131.199 23.5092C130.652 22.2825 130.379 20.8892 130.379 19.3292ZM132.139 19.3292C132.139 20.5425 132.352 21.6292 132.779 22.5892C133.206 23.5492 133.826 24.3025 134.639 24.8492C135.466 25.3825 136.452 25.6492 137.599 25.6492C138.732 25.6492 139.706 25.3758 140.519 24.8292C141.346 24.2825 141.972 23.5358 142.399 22.5892C142.826 21.6292 143.039 20.5425 143.039 19.3292C143.039 18.1158 142.826 17.0492 142.399 16.1292C141.972 15.1958 141.352 14.4692 140.539 13.9492C139.726 13.4292 138.746 13.1692 137.599 13.1692C136.452 13.1692 135.466 13.4292 134.639 13.9492C133.826 14.4692 133.206 15.1958 132.779 16.1292C132.352 17.0492 132.139 18.1158 132.139 19.3292ZM148.525 27.4092H146.805V11.4092H152.765C154.671 11.4092 156.251 11.7958 157.505 12.5692C158.771 13.3425 159.405 14.6558 159.405 16.5092C159.405 17.6692 159.091 18.6158 158.465 19.3492C157.838 20.0825 157.025 20.6092 156.025 20.9292C155.025 21.2492 153.938 21.4092 152.765 21.4092H148.525V27.4092ZM152.765 19.7292C155.978 19.7292 157.585 18.6425 157.585 16.4692C157.585 15.3358 157.138 14.4892 156.245 13.9292C155.351 13.3692 154.191 13.0892 152.765 13.0892H148.525V19.7292H152.765ZM172.914 13.1092H163.114V18.5692L171.614 18.5492V20.2492H163.114V25.7292L172.914 25.7092V27.4092H161.414V11.4092H163.114V11.4292L172.914 11.4092V13.1092ZM186.49 11.4092V13.1092H181.55V27.4092H179.85V13.1092H174.91V11.4092H186.49Z" fill="#F4F1F0"/>
</svg>
