<svg width="493" height="465" viewBox="0 0 493 465" fill="none" xmlns="http://www.w3.org/2000/svg">
<path d="M362 182H409C441.585 182 468 208.415 468 241V263C468 295.585 441.585 322 409 322H362C329.415 322 303 295.585 303 263V241C303 208.415 329.415 182 362 182Z" fill="#F4F1F0" stroke="url(#paint0_linear_1981_7840)" stroke-width="2"/>
<rect x="28" y="16" width="255" height="304" rx="59" fill="#F4F1F0" stroke="url(#paint1_linear_1981_7840)" stroke-width="2"/>
<path d="M110.571 126.4L86.0071 163.2L110.571 200H93.1831L77.3591 176.264L61.4431 200H44.0551L68.6191 163.2L44.0551 126.4H61.4431L77.3591 150.136L93.1831 126.4H110.571ZM120.161 151.24C121.204 142.04 123.872 135.447 128.165 131.46C132.52 127.473 138.408 125.48 145.829 125.48C151.963 125.48 156.777 126.553 160.273 128.7C163.769 130.847 166.192 133.821 167.541 137.624C168.952 141.365 169.657 146.027 169.657 151.608C169.657 155.288 168.645 158.815 166.621 162.188C164.597 165.561 161.439 169.057 157.145 172.676C152.852 176.233 147.117 180.281 139.941 184.82H171.497V200H119.793V184.82C129.484 178.319 136.691 173.259 141.413 169.64C146.136 165.96 149.479 162.771 151.441 160.072C153.465 157.312 154.477 154.491 154.477 151.608C154.477 147.744 153.741 144.953 152.269 143.236C150.859 141.519 148.712 140.66 145.829 140.66C142.701 140.66 140.34 141.488 138.745 143.144C137.151 144.739 136.016 147.437 135.341 151.24H120.161ZM197.267 183.44L192.667 211.96H180.707L183.467 183.44H197.267ZM243.201 147.928C247.371 147.928 251.113 149.032 254.425 151.24C257.737 153.387 260.313 156.392 262.153 160.256C263.993 164.059 264.913 168.352 264.913 173.136C264.913 182.152 262.429 189.052 257.461 193.836C252.493 198.559 244.673 200.92 234.001 200.92C228.113 200.92 223.39 200.123 219.833 198.528C216.275 196.933 213.546 194.848 211.645 192.272C209.743 189.635 208.026 186.261 206.493 182.152L217.165 175.528C218.023 178.104 219.035 180.128 220.201 181.6C221.427 183.011 223.114 184.053 225.261 184.728C227.469 185.403 230.382 185.74 234.001 185.74C239.705 185.74 243.753 184.667 246.145 182.52C248.537 180.312 249.733 177.184 249.733 173.136C249.733 169.824 248.782 167.217 246.881 165.316C244.979 163.415 242.219 162.464 238.601 162.464C235.657 162.464 232.743 163.047 229.861 164.212C226.978 165.316 223.666 167.125 219.925 169.64L208.517 168.076L211.277 126.4H261.509V141.58H224.065L222.777 154.644C225.843 152.804 228.235 151.485 229.953 150.688C231.67 149.829 233.571 149.155 235.657 148.664C237.742 148.173 240.257 147.928 243.201 147.928Z" fill="#F4F1F0"/>
<path d="M110.571 126.4L111.403 126.955L112.441 125.4H110.571V126.4ZM86.0071 163.2L85.1754 162.645L84.8048 163.2L85.1754 163.755L86.0071 163.2ZM110.571 200V201H112.441L111.403 199.445L110.571 200ZM93.1831 200L92.351 200.555L92.6479 201H93.1831V200ZM77.3591 176.264L78.1911 175.709L77.3615 174.465L76.5285 175.707L77.3591 176.264ZM61.4431 200V201H61.9765L62.2736 200.557L61.4431 200ZM44.0551 200L43.2233 199.445L42.1853 201H44.0551V200ZM68.6191 163.2L69.4508 163.755L69.8214 163.2L69.4508 162.645L68.6191 163.2ZM44.0551 126.4V125.4H42.1853L43.2233 126.955L44.0551 126.4ZM61.4431 126.4L62.2736 125.843L61.9765 125.4H61.4431V126.4ZM77.3591 150.136L76.5285 150.693L77.3615 151.935L78.1911 150.691L77.3591 150.136ZM93.1831 126.4V125.4H92.6479L92.351 125.845L93.1831 126.4ZM109.739 125.845L85.1754 162.645L86.8388 163.755L111.403 126.955L109.739 125.845ZM85.1754 163.755L109.739 200.555L111.403 199.445L86.8388 162.645L85.1754 163.755ZM110.571 199H93.1831V201H110.571V199ZM94.0151 199.445L78.1911 175.709L76.527 176.819L92.351 200.555L94.0151 199.445ZM76.5285 175.707L60.6125 199.443L62.2736 200.557L78.1896 176.821L76.5285 175.707ZM61.4431 199H44.0551V201H61.4431V199ZM44.8868 200.555L69.4508 163.755L67.7873 162.645L43.2233 199.445L44.8868 200.555ZM69.4508 162.645L44.8868 125.845L43.2233 126.955L67.7873 163.755L69.4508 162.645ZM44.0551 127.4H61.4431V125.4H44.0551V127.4ZM60.6125 126.957L76.5285 150.693L78.1896 149.579L62.2736 125.843L60.6125 126.957ZM78.1911 150.691L94.0151 126.955L92.351 125.845L76.527 149.581L78.1911 150.691ZM93.1831 127.4H110.571V125.4H93.1831V127.4ZM120.161 151.24L119.168 151.127L119.042 152.24H120.161V151.24ZM128.165 131.46L127.49 130.722L127.485 130.727L128.165 131.46ZM160.273 128.7L159.75 129.552L159.75 129.552L160.273 128.7ZM167.541 137.624L166.599 137.958L166.602 137.968L166.606 137.977L167.541 137.624ZM157.145 172.676L157.783 173.446L157.79 173.441L157.145 172.676ZM139.941 184.82L139.407 183.975L136.49 185.82H139.941V184.82ZM171.497 184.82H172.497V183.82H171.497V184.82ZM171.497 200V201H172.497V200H171.497ZM119.793 200H118.793V201H119.793V200ZM119.793 184.82L119.236 183.99L118.793 184.287V184.82H119.793ZM141.413 169.64L142.022 170.434L142.028 170.429L141.413 169.64ZM151.441 160.072L150.635 159.481L150.633 159.484L151.441 160.072ZM152.269 143.236L151.497 143.871L151.503 143.879L151.51 143.887L152.269 143.236ZM138.745 143.144L139.452 143.851L139.459 143.844L139.466 143.838L138.745 143.144ZM135.341 151.24V152.24H136.18L136.326 151.415L135.341 151.24ZM121.155 151.353C122.186 142.26 124.804 135.945 128.846 132.193L127.485 130.727C122.94 134.948 120.223 141.82 119.168 151.127L121.155 151.353ZM128.841 132.198C132.967 128.42 138.591 126.48 145.829 126.48V124.48C138.225 124.48 132.073 126.527 127.49 130.722L128.841 132.198ZM145.829 126.48C151.863 126.48 156.471 127.539 159.75 129.552L160.797 127.848C157.084 125.568 152.062 124.48 145.829 124.48V126.48ZM159.75 129.552C163.055 131.581 165.327 134.375 166.599 137.958L168.484 137.29C167.057 133.268 164.484 130.112 160.797 127.848L159.75 129.552ZM166.606 137.977C167.961 141.57 168.657 146.103 168.657 151.608H170.657C170.657 145.95 169.943 141.16 168.477 137.271L166.606 137.977ZM168.657 151.608C168.657 155.094 167.701 158.444 165.764 161.674L167.479 162.702C169.589 159.185 170.657 155.482 170.657 151.608H168.657ZM165.764 161.674C163.815 164.921 160.743 168.336 156.501 171.911L157.79 173.441C162.135 169.779 165.38 166.201 167.479 162.702L165.764 161.674ZM156.507 171.906C152.259 175.426 146.563 179.449 139.407 183.975L140.476 185.665C147.671 181.114 153.445 177.041 157.783 173.446L156.507 171.906ZM139.941 185.82H171.497V183.82H139.941V185.82ZM170.497 184.82V200H172.497V184.82H170.497ZM171.497 199H119.793V201H171.497V199ZM120.793 200V184.82H118.793V200H120.793ZM120.35 185.65C130.045 179.146 137.273 174.072 142.022 170.434L140.805 168.846C136.108 172.445 128.923 177.491 119.236 183.99L120.35 185.65ZM142.028 170.429C146.776 166.729 150.205 163.472 152.25 160.66L150.633 159.484C148.752 162.069 145.496 165.191 140.799 168.851L142.028 170.429ZM152.248 160.663C154.373 157.765 155.477 154.741 155.477 151.608H153.477C153.477 154.24 152.557 156.859 150.635 159.481L152.248 160.663ZM155.477 151.608C155.477 147.66 154.733 144.574 153.029 142.585L151.51 143.887C152.749 145.332 153.477 147.828 153.477 151.608H155.477ZM153.042 142.601C151.388 140.588 148.915 139.66 145.829 139.66V141.66C148.509 141.66 150.329 142.45 151.497 143.871L153.042 142.601ZM145.829 139.66C142.531 139.66 139.868 140.536 138.025 142.45L139.466 143.838C140.812 142.44 142.872 141.66 145.829 141.66V139.66ZM138.038 142.437C136.228 144.247 135.044 147.189 134.357 151.065L136.326 151.415C136.988 147.685 138.073 145.23 139.452 143.851L138.038 142.437ZM135.341 150.24H120.161V152.24H135.341V150.24ZM197.267 183.44L198.255 183.599L198.442 182.44H197.267V183.44ZM192.667 211.96V212.96H193.519L193.655 212.119L192.667 211.96ZM180.707 211.96L179.712 211.864L179.606 212.96H180.707V211.96ZM183.467 183.44V182.44H182.56L182.472 183.344L183.467 183.44ZM196.28 183.281L191.68 211.801L193.655 212.119L198.255 183.599L196.28 183.281ZM192.667 210.96H180.707V212.96H192.667V210.96ZM181.703 212.056L184.463 183.536L182.472 183.344L179.712 211.864L181.703 212.056ZM183.467 184.44H197.267V182.44H183.467V184.44ZM254.425 151.24L253.87 152.072L253.881 152.079L254.425 151.24ZM262.153 160.256L261.25 160.686L261.252 160.692L262.153 160.256ZM257.461 193.836L258.15 194.561L258.154 194.556L257.461 193.836ZM219.833 198.528L219.424 199.441L219.424 199.441L219.833 198.528ZM211.645 192.272L210.833 192.857L210.84 192.866L211.645 192.272ZM206.493 182.152L205.965 181.302L205.269 181.734L205.556 182.502L206.493 182.152ZM217.165 175.528L218.113 175.212L217.713 174.011L216.637 174.678L217.165 175.528ZM220.201 181.6L219.417 182.221L219.431 182.239L219.446 182.256L220.201 181.6ZM225.261 184.728L224.961 185.682L224.968 185.684L225.261 184.728ZM246.145 182.52L246.813 183.264L246.823 183.255L246.145 182.52ZM246.881 165.316L246.173 166.023L246.173 166.023L246.881 165.316ZM229.861 164.212L230.218 165.146L230.227 165.143L230.235 165.139L229.861 164.212ZM219.925 169.64L219.789 170.631L220.166 170.682L220.482 170.47L219.925 169.64ZM208.517 168.076L207.519 168.01L207.457 168.94L208.381 169.067L208.517 168.076ZM211.277 126.4V125.4H210.341L210.279 126.334L211.277 126.4ZM261.509 126.4H262.509V125.4H261.509V126.4ZM261.509 141.58V142.58H262.509V141.58H261.509ZM224.065 141.58V140.58H223.158L223.069 141.482L224.065 141.58ZM222.777 154.644L221.781 154.546L221.586 156.524L223.291 155.501L222.777 154.644ZM229.953 150.688L230.374 151.595L230.387 151.589L230.4 151.582L229.953 150.688ZM243.201 148.928C247.184 148.928 250.73 149.979 253.87 152.072L254.979 150.408C251.495 148.085 247.559 146.928 243.201 146.928V148.928ZM253.881 152.079C257.024 154.117 259.482 156.974 261.25 160.686L263.055 159.826C261.143 155.81 258.449 152.657 254.968 150.401L253.881 152.079ZM261.252 160.692C263.018 164.341 263.913 168.483 263.913 173.136H265.913C265.913 168.221 264.967 163.776 263.053 159.82L261.252 160.692ZM263.913 173.136C263.913 181.968 261.484 188.573 256.767 193.116L258.154 194.556C263.373 189.531 265.913 182.336 265.913 173.136H263.913ZM256.772 193.111C252.07 197.581 244.554 199.92 234.001 199.92V201.92C244.791 201.92 252.915 199.537 258.15 194.561L256.772 193.111ZM234.001 199.92C228.188 199.92 223.622 199.131 220.242 197.615L219.424 199.441C223.158 201.115 228.037 201.92 234.001 201.92V199.92ZM220.242 197.615C216.807 196.076 214.228 194.088 212.449 191.678L210.84 192.866C212.864 195.608 215.743 197.791 219.424 199.441L220.242 197.615ZM212.456 191.687C210.621 189.142 208.942 185.855 207.429 181.802L205.556 182.502C207.11 186.668 208.865 190.127 210.833 192.857L212.456 191.687ZM207.02 183.002L217.692 176.378L216.637 174.678L205.965 181.302L207.02 183.002ZM216.216 175.844C217.096 178.486 218.155 180.627 219.417 182.221L220.985 180.979C219.916 179.629 218.95 177.722 218.113 175.212L216.216 175.844ZM219.446 182.256C220.816 183.832 222.674 184.963 224.961 185.682L225.56 183.774C223.554 183.143 222.038 182.189 220.955 180.944L219.446 182.256ZM224.968 185.684C227.309 186.4 230.332 186.74 234.001 186.74V184.74C230.432 184.74 227.628 184.406 225.553 183.772L224.968 185.684ZM234.001 186.74C239.778 186.74 244.14 185.663 246.812 183.264L245.477 181.776C243.365 183.67 239.631 184.74 234.001 184.74V186.74ZM246.823 183.255C249.468 180.813 250.733 177.39 250.733 173.136H248.733C248.733 176.978 247.605 179.811 245.466 181.785L246.823 183.255ZM250.733 173.136C250.733 169.624 249.718 166.739 247.588 164.609L246.173 166.023C247.846 167.695 248.733 170.024 248.733 173.136H250.733ZM247.588 164.609C245.441 162.462 242.39 161.464 238.601 161.464V163.464C242.048 163.464 244.517 164.367 246.173 166.023L247.588 164.609ZM238.601 161.464C235.521 161.464 232.481 162.074 229.486 163.285L230.235 165.139C233.006 164.019 235.792 163.464 238.601 163.464V161.464ZM229.503 163.278C226.526 164.418 223.145 166.271 219.367 168.81L220.482 170.47C224.187 167.98 227.43 166.214 230.218 165.146L229.503 163.278ZM220.06 168.649L208.652 167.085L208.381 169.067L219.789 170.631L220.06 168.649ZM209.514 168.142L212.274 126.466L210.279 126.334L207.519 168.01L209.514 168.142ZM211.277 127.4H261.509V125.4H211.277V127.4ZM260.509 126.4V141.58H262.509V126.4H260.509ZM261.509 140.58H224.065V142.58H261.509V140.58ZM223.069 141.482L221.781 154.546L223.772 154.742L225.06 141.678L223.069 141.482ZM223.291 155.501C226.349 153.667 228.705 152.37 230.374 151.595L229.531 149.781C227.765 150.601 225.337 151.941 222.262 153.787L223.291 155.501ZM230.4 151.582C232.04 150.762 233.867 150.112 235.886 149.637L235.428 147.691C233.275 148.197 231.3 148.896 229.505 149.794L230.4 151.582ZM235.886 149.637C237.874 149.17 240.307 148.928 243.201 148.928V146.928C240.206 146.928 237.61 147.177 235.428 147.691L235.886 149.637Z" fill="url(#paint2_linear_1981_7840)"/>
<rect x="64.9591" y="438.223" width="19.591" height="21.3902" rx="9.7955" transform="rotate(-45 64.9591 438.223)" fill="#F4F1F0" stroke="url(#paint3_linear_1981_7840)" stroke-width="2"/>
<path d="M155.394 362.276L158.269 365.151C161.034 367.916 161.034 372.398 158.269 375.163L146.241 387.19L138.361 379.31C133.657 374.606 133.657 366.98 138.361 362.276C143.064 357.572 150.691 357.572 155.394 362.276Z" fill="#F4F1F0" stroke="url(#paint4_linear_1981_7840)" stroke-width="2"/>
<rect x="113.305" y="369.521" width="19.591" height="35.7842" rx="9.7955" transform="rotate(-45 113.305 369.521)" fill="#F4F1F0" stroke="url(#paint5_linear_1981_7840)" stroke-width="2"/>
<rect x="101.854" y="373.338" width="19.591" height="41.182" rx="9.7955" transform="rotate(-45 101.854 373.338)" fill="#F4F1F0" stroke="url(#paint6_linear_1981_7840)" stroke-width="2"/>
<rect x="62.4142" y="422.957" width="19.591" height="33.985" rx="9.7955" transform="rotate(-45 62.4142 422.957)" fill="#F4F1F0" stroke="url(#paint7_linear_1981_7840)" stroke-width="2"/>
<rect x="66.2306" y="408.961" width="19.591" height="41.182" rx="9.7955" transform="rotate(-45 66.2306 408.961)" fill="#F4F1F0" stroke="url(#paint8_linear_1981_7840)" stroke-width="2"/>
<rect x="73.8654" y="396.238" width="19.591" height="44.7805" rx="9.7955" transform="rotate(-45 73.8654 396.238)" fill="#F4F1F0" stroke="url(#paint9_linear_1981_7840)" stroke-width="2"/>
<rect x="90.4044" y="379.699" width="19.591" height="44.7805" rx="9.7955" transform="rotate(-45 90.4044 379.699)" fill="#F4F1F0" stroke="url(#paint10_linear_1981_7840)" stroke-width="2"/>
<rect x="81.4982" y="386.061" width="19.591" height="46.5797" rx="9.7955" transform="rotate(-45 81.4982 386.061)" fill="#F4F1F0" stroke="url(#paint11_linear_1981_7840)" stroke-width="2"/>
<path d="M303.916 450.224L303.916 450.224L303.908 450.217C303.221 449.545 302.798 448.654 302.712 447.704L302.637 446.872L301.805 446.798C300.841 446.712 299.94 446.29 299.262 445.608L299.262 445.608L299.255 445.601C298.857 445.208 298.541 444.742 298.326 444.229C298.111 443.716 298 443.166 298 442.611C298 442.056 298.111 441.506 298.326 440.993C298.541 440.48 298.857 440.013 299.255 439.621L299.255 439.621L299.26 439.616C299.767 439.109 300.399 438.74 301.093 438.546C301.788 438.351 302.522 438.337 303.224 438.506L303.224 438.506L303.236 438.509C303.819 438.641 304.428 438.619 305 438.445C305.566 438.272 306.077 437.956 306.484 437.527L324.835 419.322C325.267 418.918 325.587 418.41 325.762 417.845C325.939 417.273 325.962 416.666 325.827 416.083L325.825 416.073L325.823 416.064C325.681 415.5 325.658 414.914 325.755 414.341C325.853 413.769 326.069 413.222 326.39 412.736C326.711 412.249 327.13 411.833 327.622 411.514C328.114 411.195 328.667 410.98 329.247 410.883C329.828 410.786 330.422 410.809 330.993 410.951C331.564 411.093 332.098 411.35 332.563 411.706C333.028 412.062 333.413 412.51 333.694 413.02C333.976 413.53 334.148 414.091 334.199 414.67L334.274 415.502L335.107 415.576C336.083 415.663 336.997 416.087 337.69 416.771C338.485 417.563 338.929 418.632 338.929 419.746C338.929 420.86 338.484 421.93 337.689 422.721L337.689 422.721L337.682 422.728C337.177 423.24 336.547 423.615 335.852 423.814C335.157 424.014 334.422 424.032 333.718 423.867L333.703 423.864L333.687 423.86C333.111 423.744 332.514 423.773 331.952 423.945C331.391 424.116 330.882 424.423 330.471 424.84L312.107 443.058C311.683 443.465 311.369 443.972 311.195 444.533C311.02 445.097 310.993 445.697 311.116 446.275L311.118 446.286L311.121 446.298C311.268 446.916 311.272 447.559 311.133 448.179C310.995 448.799 310.716 449.38 310.318 449.879C309.92 450.379 309.413 450.782 308.834 451.061C308.255 451.338 307.62 451.483 306.976 451.483C306.976 451.483 306.976 451.483 306.976 451.483H306.943C305.804 451.477 304.716 451.024 303.916 450.224Z" fill="#F4F1F0" stroke="url(#paint12_linear_1981_7840)" stroke-width="2"/>
<path d="M326.65 434.787L326.636 434.795L326.622 434.803C324.89 435.82 322.868 436.244 320.868 436.008C318.871 435.773 317.009 434.893 315.567 433.506C314.205 432.143 313.321 430.383 313.045 428.485C312.769 426.585 313.117 424.647 314.039 422.958L314.058 422.923L314.074 422.886L315.3 420.141C318.606 414.19 320.726 407.662 321.546 400.915L321.546 400.913C322.849 390.032 325.875 382.103 331.484 376.876C337.085 371.657 345.437 368.969 357.764 368.969L357.767 368.969C360.752 368.96 363.709 369.537 366.468 370.666C369.228 371.795 371.734 373.453 373.843 375.546C375.953 377.639 377.624 380.124 378.761 382.859C379.898 385.594 380.479 388.525 380.47 391.483V391.486C380.47 403.693 377.762 411.975 372.498 417.534C367.224 423.104 359.219 426.116 348.229 427.409L348.228 427.409C341.43 428.218 334.853 430.316 328.853 433.589L326.65 434.787Z" fill="#F4F1F0" stroke="url(#paint13_linear_1981_7840)" stroke-width="2"/>
<path d="M441.315 388.903C440.642 388.224 440.256 387.312 440.24 386.356L440.622 362.494C440.666 361.796 440.906 361.125 441.316 360.558C441.73 359.985 442.298 359.543 442.954 359.283C443.611 359.022 444.328 358.955 445.021 359.089C445.709 359.222 446.344 359.547 446.854 360.025L470.34 384.176C470.802 384.7 471.107 385.344 471.219 386.034C471.332 386.73 471.243 387.445 470.964 388.093C470.685 388.741 470.226 389.295 469.642 389.692C469.064 390.084 468.387 390.305 467.688 390.329L443.868 389.996C443.867 389.996 443.866 389.996 443.864 389.996C442.905 389.976 441.991 389.584 441.315 388.903Z" fill="#F4F1F0" stroke="url(#paint14_linear_1981_7840)" stroke-width="2"/>
<path d="M392.344 441.583C391.626 442.301 390.711 442.79 389.715 442.988C388.718 443.186 387.684 443.084 386.745 442.695C385.806 442.306 385.003 441.648 384.439 440.802C383.874 439.957 383.573 438.964 383.573 437.947C383.573 436.93 383.874 435.937 384.439 435.092C385.003 434.246 385.806 433.588 386.745 433.199C387.684 432.81 388.718 432.708 389.715 432.906C390.711 433.104 391.626 433.593 392.345 434.311M392.344 441.583C392.825 441.108 393.206 440.542 393.467 439.918C393.727 439.294 393.862 438.624 393.862 437.947C393.862 437.27 393.727 436.6 393.467 435.976C393.206 435.352 392.825 434.786 392.345 434.311M392.344 441.583C392.344 441.584 392.343 441.585 392.342 441.585L391.639 440.874M392.345 434.311C392.345 434.311 392.346 434.312 392.346 434.313L391.639 435.02L392.342 434.309C392.343 434.309 392.344 434.31 392.345 434.311ZM382.534 448.483C378.699 444.648 378.18 437.831 380.962 429.546C383.722 421.327 389.646 411.983 398.118 403.511C406.598 395.032 415.946 389.103 424.167 386.341C432.454 383.557 439.271 384.076 443.106 387.911C446.94 391.746 447.456 398.566 444.67 406.856C441.905 415.08 435.977 424.428 427.505 432.899C419.034 441.371 409.69 447.295 401.47 450.055C393.186 452.837 386.369 452.318 382.534 448.483Z" fill="#F4F1F0" stroke="url(#paint15_linear_1981_7840)" stroke-width="2"/>
<path d="M8.70711 0.292893C8.31658 -0.0976311 7.68342 -0.0976311 7.29289 0.292893L0.928932 6.65685C0.538408 7.04738 0.538408 7.68054 0.928932 8.07107C1.31946 8.46159 1.95262 8.46159 2.34315 8.07107L8 2.41421L13.6569 8.07107C14.0474 8.46159 14.6805 8.46159 15.0711 8.07107C15.4616 7.68054 15.4616 7.04738 15.0711 6.65685L8.70711 0.292893ZM481.667 338C481.667 340.946 484.054 343.333 487 343.333C489.946 343.333 492.333 340.946 492.333 338C492.333 335.054 489.946 332.667 487 332.667C484.054 332.667 481.667 335.054 481.667 338ZM7 1L7 264H9L9 1L7 1ZM82 339H487V337H82V339ZM7 264C7 305.421 40.5786 339 82 339V337C41.6832 337 9 304.317 9 264H7Z" fill="url(#paint16_linear_1981_7840)"/>
<defs>
<linearGradient id="paint0_linear_1981_7840" x1="308.425" y1="278.155" x2="334.262" y2="201.776" gradientUnits="userSpaceOnUse">
<stop stop-color="#F44242"/>
<stop offset="1" stop-color="#569EF0"/>
</linearGradient>
<linearGradient id="paint1_linear_1981_7840" x1="36.8877" y1="224.361" x2="107.851" y2="74.5502" gradientUnits="userSpaceOnUse">
<stop stop-color="#F44242"/>
<stop offset="1" stop-color="#569EF0"/>
</linearGradient>
<linearGradient id="paint2_linear_1981_7840" x1="43.2721" y1="189.313" x2="55.4824" y2="123.855" gradientUnits="userSpaceOnUse">
<stop stop-color="#F44242"/>
<stop offset="1" stop-color="#569EF0"/>
</linearGradient>
<linearGradient id="paint3_linear_1981_7840" x1="64.3756" y1="454.226" x2="69.4718" y2="442.402" gradientUnits="userSpaceOnUse">
<stop stop-color="#F44242"/>
<stop offset="1" stop-color="#569EF0"/>
</linearGradient>
<linearGradient id="paint4_linear_1981_7840" x1="141.326" y1="382.27" x2="135.596" y2="369.392" gradientUnits="userSpaceOnUse">
<stop stop-color="#F44242"/>
<stop offset="1" stop-color="#569EF0"/>
</linearGradient>
<linearGradient id="paint5_linear_1981_7840" x1="112.721" y1="395.373" x2="123.342" y2="380.118" gradientUnits="userSpaceOnUse">
<stop stop-color="#F44242"/>
<stop offset="1" stop-color="#569EF0"/>
</linearGradient>
<linearGradient id="paint6_linear_1981_7840" x1="101.27" y1="402.882" x2="113.882" y2="387.032" gradientUnits="userSpaceOnUse">
<stop stop-color="#F44242"/>
<stop offset="1" stop-color="#569EF0"/>
</linearGradient>
<linearGradient id="paint7_linear_1981_7840" x1="61.8307" y1="447.577" x2="71.7654" y2="432.594" gradientUnits="userSpaceOnUse">
<stop stop-color="#F44242"/>
<stop offset="1" stop-color="#569EF0"/>
</linearGradient>
<linearGradient id="paint8_linear_1981_7840" x1="65.6471" y1="438.505" x2="78.2585" y2="422.655" gradientUnits="userSpaceOnUse">
<stop stop-color="#F44242"/>
<stop offset="1" stop-color="#569EF0"/>
</linearGradient>
<linearGradient id="paint9_linear_1981_7840" x1="73.2819" y1="428.245" x2="87.1494" y2="412.157" gradientUnits="userSpaceOnUse">
<stop stop-color="#F44242"/>
<stop offset="1" stop-color="#569EF0"/>
</linearGradient>
<linearGradient id="paint10_linear_1981_7840" x1="89.8209" y1="411.706" x2="103.688" y2="395.618" gradientUnits="userSpaceOnUse">
<stop stop-color="#F44242"/>
<stop offset="1" stop-color="#569EF0"/>
</linearGradient>
<linearGradient id="paint11_linear_1981_7840" x1="80.9147" y1="419.298" x2="95.3858" y2="403.132" gradientUnits="userSpaceOnUse">
<stop stop-color="#F44242"/>
<stop offset="1" stop-color="#569EF0"/>
</linearGradient>
<linearGradient id="paint12_linear_1981_7840" x1="298.652" y1="439.011" x2="307.394" y2="416.896" gradientUnits="userSpaceOnUse">
<stop stop-color="#F44242"/>
<stop offset="1" stop-color="#569EF0"/>
</linearGradient>
<linearGradient id="paint13_linear_1981_7840" x1="314.628" y1="415.248" x2="328.793" y2="379.428" gradientUnits="userSpaceOnUse">
<stop stop-color="#F44242"/>
<stop offset="1" stop-color="#569EF0"/>
</linearGradient>
<linearGradient id="paint14_linear_1981_7840" x1="447.091" y1="394.66" x2="442.561" y2="373.617" gradientUnits="userSpaceOnUse">
<stop stop-color="#F44242"/>
<stop offset="1" stop-color="#569EF0"/>
</linearGradient>
<linearGradient id="paint15_linear_1981_7840" x1="389.885" y1="452.478" x2="375.628" y2="431.197" gradientUnits="userSpaceOnUse">
<stop stop-color="#F44242"/>
<stop offset="1" stop-color="#569EF0"/>
</linearGradient>
<linearGradient id="paint16_linear_1981_7840" x1="26.4287" y1="231.571" x2="78.8622" y2="44.2392" gradientUnits="userSpaceOnUse">
<stop stop-color="#F44242"/>
<stop offset="1" stop-color="#569EF0"/>
</linearGradient>
</defs>
</svg>
