<svg xmlns="http://www.w3.org/2000/svg" xmlns:xlink="http://www.w3.org/1999/xlink" id="eAbSZFt1Mvj1" viewBox="0 0 212 213.01"><style> #eAbSZFt1Mvj4_to {animation: eAbSZFt1Mvj4_to__to 40000ms linear infinite normal forwards}@keyframes eAbSZFt1Mvj4_to__to { 0% {transform: translate(107.122537px,158.225498px)} 50% {transform: translate(107.122537px,53.225498px)} 100% {transform: translate(107.122537px,158.225498px)}} #eAbSZFt1Mvj5_to {animation: eAbSZFt1Mvj5_to__to 40000ms linear infinite normal forwards}@keyframes eAbSZFt1Mvj5_to__to { 0% {transform: translate(106.132898px,132.1339px)} 50% {transform: translate(106.132898px,79.1339px)} 100% {transform: translate(106.132898px,132.1339px)}} #eAbSZFt1Mvj6_to {animation: eAbSZFt1Mvj6_to__to 40000ms linear infinite normal forwards}@keyframes eAbSZFt1Mvj6_to__to { 0% {transform: translate(105.836395px,184.837502px)} 50% {transform: translate(105.836395px,27.203493px)} 100% {transform: translate(105.836395px,184.837502px)}} </style><defs><linearGradient id="eAbSZFt1Mvj3-stroke" x1="9.06531" y1="144.428" x2="52.2262" y2="35.9389" spreadMethod="pad" gradientUnits="userSpaceOnUse" gradientTransform="translate(0 0)"><stop id="eAbSZFt1Mvj3-stroke-0" offset="0%" stop-color="#f44242"></stop><stop id="eAbSZFt1Mvj3-stroke-1" offset="100%" stop-color="#569ef0"></stop></linearGradient><linearGradient id="eAbSZFt1Mvj4-stroke" x1="57.6654" y1="177.531" x2="79.2455" y2="123.288" spreadMethod="pad" gradientUnits="userSpaceOnUse" gradientTransform="translate(0 0)"><stop id="eAbSZFt1Mvj4-stroke-0" offset="0%" stop-color="#f44242"></stop><stop id="eAbSZFt1Mvj4-stroke-1" offset="100%" stop-color="#569ef0"></stop></linearGradient><linearGradient id="eAbSZFt1Mvj5-stroke" x1="33.6731" y1="161.051" x2="65.9975" y2="79.8004" spreadMethod="pad" gradientUnits="userSpaceOnUse" gradientTransform="translate(0 0)"><stop id="eAbSZFt1Mvj5-stroke-0" offset="0%" stop-color="#f44242"></stop><stop id="eAbSZFt1Mvj5-stroke-1" offset="100%" stop-color="#569ef0"></stop></linearGradient><linearGradient id="eAbSZFt1Mvj6-stroke" x1="81.6491" y1="194.49" x2="92.4392" y2="167.368" spreadMethod="pad" gradientUnits="userSpaceOnUse" gradientTransform="translate(0 0)"><stop id="eAbSZFt1Mvj6-stroke-0" offset="0%" stop-color="#f44242"></stop><stop id="eAbSZFt1Mvj6-stroke-1" offset="100%" stop-color="#569ef0"></stop></linearGradient></defs><g transform="translate(.1835 0.484508)"><path d="M105.817,210.633c57.888,0,104.816-46.928,104.816-104.816c0-57.8889-46.928-104.817014-104.816-104.817009C47.928,0.999996,1,47.9281,1.00001,105.817c0,57.888,46.92799,104.816,104.81699,104.816Z" fill="none" stroke="url(#eAbSZFt1Mvj3-stroke)" stroke-width="2" stroke-miterlimit="10"></path><g id="eAbSZFt1Mvj4_to" transform="translate(107.122537,158.225498)"><path d="M106.04,210.633c28.944,0,52.408-23.463,52.408-52.407s-23.464-52.408-52.408-52.408c-28.9436,0-52.4072,23.464-52.4072,52.408s23.4636,52.407,52.4072,52.407Z" transform="translate(-106.040394,-158.225498)" fill="none" stroke="url(#eAbSZFt1Mvj4-stroke)" stroke-width="2" stroke-miterlimit="10"></path></g><g id="eAbSZFt1Mvj5_to" transform="translate(106.132898,132.1339)"><path d="M106.133,210.634c43.354,0,78.5-35.146,78.5-78.5c0-43.3545-35.146-78.5002-78.5-78.5002-43.3546,0-78.5002,35.1457-78.5002,78.5002c0,43.354,35.1456,78.5,78.5002,78.5Z" transform="translate(-106.132898,-132.1339)" fill="none" stroke="url(#eAbSZFt1Mvj5-stroke)" stroke-width="2" stroke-miterlimit="10"></path></g><g id="eAbSZFt1Mvj6_to" transform="translate(105.836395,184.837502)"><path d="M105.837,211.041c14.471,0,26.203-11.731,26.203-26.203s-11.732-26.204-26.203-26.204c-14.4724,0-26.2042,11.732-26.2042,26.204s11.7318,26.203,26.2042,26.203Z" transform="translate(-105.836395,-184.837502)" fill="none" stroke="url(#eAbSZFt1Mvj6-stroke)" stroke-width="2" stroke-miterlimit="10"></path></g></g></svg>