<svg xmlns="http://www.w3.org/2000/svg" xmlns:xlink="http://www.w3.org/1999/xlink" id="ehLxXUyeP0H1" viewBox="0 0 212 212"><style> #ehLxXUyeP0H2_tr {animation: ehLxXUyeP0H2_tr__tr 80000ms linear infinite normal forwards}@keyframes ehLxXUyeP0H2_tr__tr { 0% {transform: translate(105.523003px,105.523003px) rotate(0deg)} 100% {transform: translate(105.523003px,105.523003px) rotate(359.999997deg)}} </style><defs><linearGradient id="ehLxXUyeP0H2-fill" x1="8.11966" y1="144.395" x2="51.5715" y2="35.1744" spreadMethod="pad" gradientUnits="userSpaceOnUse" gradientTransform="translate(0 0)"><stop id="ehLxXUyeP0H2-fill-0" offset="0%" stop-color="#f44242"></stop><stop id="ehLxXUyeP0H2-fill-1" offset="100%" stop-color="#569ef0"></stop></linearGradient></defs><g id="ehLxXUyeP0H2_tr" transform="translate(105.523003,105.523003) rotate(0)"><path d="M78.1944,29.8172C78.1944,14.438,90.446,2,105.523,2s27.329,12.438,27.329,27.8172-12.252,27.8171-27.329,27.8171-27.3286-12.438-27.3286-27.8171ZM105.523,0C89.3093,0,76.1944,13.3658,76.1944,29.8172c0,2.279.2517,4.4989.7285,6.6322-1.1768-1.8772-2.5818-3.6522-4.215-5.2854-11.6886-11.6886-30.6395-11.6885-42.3281,0s-11.6887,30.6396-.0001,42.3282c1.6588,1.6587,3.4638,3.0821,5.3735,4.27-1.9184-.3875-3.9035-.5909-5.9361-.5909C13.3495,77.1713,0,90.5209,0,106.988c-.000002,16.468,13.3495,29.818,29.8171,29.818c1.2223,0,2.4273-.074,3.6111-.217-.7804.637-1.5361,1.319-2.2636,2.047-11.6886,11.689-11.6887,30.64-.0001,42.328c11.6886,11.689,30.6396,11.689,42.3282,0c1.0714-1.071,2.0446-2.204,2.9195-3.386-.1437,1.197-.2178,2.415-.2178,3.651c0,16.452,13.1149,29.817,29.3286,29.817c16.214,0,29.329-13.365,29.329-29.817c0-1.383-.093-2.744-.272-4.078.926,1.283,1.967,2.509,3.122,3.664c11.689,11.689,30.64,11.689,42.329,0c11.688-11.688,11.688-30.639,0-42.328-.655-.655-1.333-1.273-2.03-1.854c1.06.114,2.137.173,3.228.173c16.468,0,29.817-13.35,29.817-29.818c0-16.4671-13.349-29.8167-29.817-29.8167-1.838,0-3.638.1664-5.384.4849c1.761-1.135,3.429-2.4733,4.97-4.0149c11.689-11.6886,11.689-30.6395,0-42.3281-11.688-11.6886-30.639-11.6886-42.328,0-1.773,1.7732-3.277,3.7136-4.513,5.7704.574-2.3263.878-4.7606.878-7.2664C134.852,13.3658,121.737,0,105.523,0Zm25.064,45.3085c-5.145,8.5862-14.439,14.3258-25.064,14.3258-10.4233,0-19.5659-5.5239-24.7667-13.8402c2.1513,9.6608-.5315,20.1812-8.0484,27.6981-7.3766,7.3766-17.6457,10.0979-27.1564,8.1638c8.455,5.2626,14.0828,14.6403,14.0828,25.332c0,9.318-4.2738,17.637-10.968,23.105c8.8294-1.082,18.0488,1.765,24.8264,8.543c6.7493,6.749,9.6014,15.92,8.5562,24.716c5.3475-7.247,13.8668-11.94,23.4741-11.94c9.73,0,18.344,4.813,23.677,12.218-1.19-8.925,1.644-18.284,8.503-25.143c6.679-6.68,15.73-9.542,24.443-8.587-6.56-5.47-10.734-13.703-10.734-22.912c0-10.5203,5.449-19.7684,13.678-25.0758-9.354,1.7199-19.369-1.037-26.603-8.2709-7.682-7.6818-10.315-18.5004-7.9-28.3328ZM37.7241,133.666c1.8722-1.048,3.8331-1.879,5.8459-2.492c8.4003-4.788,14.0643-13.825,14.0643-24.186c0-15.3626-12.4542-27.8167-27.8172-27.8167s-27.8171,12.4541-27.8171,27.8167c0,15.363,12.4541,27.818,27.8171,27.818c2.7468,0,5.4007-.399,7.907-1.14Zm-5.1453,6.384c1.8118-1.812,3.8106-3.323,5.9343-4.532c2.0513-.625,4.0089-1.465,5.8464-2.493c9.5052-2.82,20.2156-.478,27.719,7.025c10.9075,10.908,10.9075,28.592,0,39.5-10.9076,10.907-28.5922,10.907-39.4997,0-10.9076-10.908-10.9076-28.592,0-39.5ZM181.229,79.1713c15.363,0,27.817,12.4541,27.817,27.8167c0,15.363-12.454,27.818-27.817,27.818-2.459,0-4.844-.32-7.115-.919-2.307-1.367-4.758-2.398-7.283-3.093-8.044-4.875-13.419-13.713-13.419-23.806c0-15.3626,12.454-27.8167,27.817-27.8167Zm-7.904,56.5757c-2.585-.709-5.03-1.757-7.283-3.094-9.303-2.463-19.63-.047-26.925,7.248-10.908,10.908-10.908,28.592,0,39.5c10.907,10.908,28.592,10.908,39.499,0c10.908-10.908,10.908-28.592,0-39.5-1.627-1.627-3.406-3.012-5.291-4.154ZM78.1944,181.229c0-15.379,12.2516-27.817,27.3286-27.817s27.329,12.438,27.329,27.817-12.252,27.817-27.329,27.817-27.3286-12.438-27.3286-27.817ZM71.2937,32.5782c10.9075,10.9076,10.9075,28.5922,0,39.4998-10.9076,10.9075-28.5922,10.9075-39.4998,0-10.9075-10.9076-10.9075-28.5922.0001-39.4997s28.5921-10.9076,39.4997-.0001ZM179.401,72.2271c-10.908,10.9076-28.592,10.9076-39.5,0-10.907-10.9075-10.907-28.5922,0-39.4997c10.908-10.9076,28.592-10.9075,39.5,0s10.908,28.5922,0,39.4997Z" transform="translate(-105.523003,-105.523003)" clip-rule="evenodd" fill="url(#ehLxXUyeP0H2-fill)" fill-rule="evenodd"></path></g></svg>