<svg xmlns="http://www.w3.org/2000/svg" xmlns:xlink="http://www.w3.org/1999/xlink" id="e0RYgXMfdBq1" viewBox="0 0 253 1074"><style> #e0RYgXMfdBq2_to {animation: e0RYgXMfdBq2_to__to 20000ms linear infinite normal forwards}@keyframes e0RYgXMfdBq2_to__to { 0% {transform: translate(126.482498px,1001.593506px)} 50% {transform: translate(126.482498px,502.036506px)} 100% {transform: translate(126.482498px,1001.593506px)}} #e0RYgXMfdBq3_to {animation: e0RYgXMfdBq3_to__to 20000ms linear infinite normal forwards}@keyframes e0RYgXMfdBq3_to__to { 0% {transform: translate(126.482498px,928.127502px)} 50% {transform: translate(126.482498px,502.036502px)} 100% {transform: translate(126.482498px,928.127502px)}} #e0RYgXMfdBq4_to {animation: e0RYgXMfdBq4_to__to 20000ms linear infinite normal forwards}@keyframes e0RYgXMfdBq4_to__to { 0% {transform: translate(126.482498px,857.600983px)} 50% {transform: translate(126.482498px,503.015983px)} 100% {transform: translate(126.482498px,857.600983px)}} #e0RYgXMfdBq5_to {animation: e0RYgXMfdBq5_to__to 20000ms linear infinite normal forwards}@keyframes e0RYgXMfdBq5_to__to { 0% {transform: translate(126.482498px,785.605499px)} 50% {transform: translate(126.482498px,502.525499px)} 100% {transform: translate(126.482498px,785.605499px)}} #e0RYgXMfdBq6_to {animation: e0RYgXMfdBq6_to__to 20000ms linear infinite normal forwards}@keyframes e0RYgXMfdBq6_to__to { 0% {transform: translate(126.482498px,713.609985px)} 50% {transform: translate(126.482498px,502.035985px)} 100% {transform: translate(126.482498px,713.609985px)}} #e0RYgXMfdBq7_to {animation: e0RYgXMfdBq7_to__to 20000ms linear infinite normal forwards}@keyframes e0RYgXMfdBq7_to__to { 0% {transform: translate(126.482498px,643.573486px)} 50% {transform: translate(126.482498px,501.546486px)} 100% {transform: translate(126.482498px,643.573486px)}} #e0RYgXMfdBq8_to {animation: e0RYgXMfdBq8_to__to 20000ms linear infinite normal forwards}@keyframes e0RYgXMfdBq8_to__to { 0% {transform: translate(126.482498px,571.578491px)} 50% {transform: translate(126.482498px,502.036491px)} 100% {transform: translate(126.482498px,571.578491px)}} #e0RYgXMfdBq10_to {animation: e0RYgXMfdBq10_to__to 20000ms linear infinite normal forwards}@keyframes e0RYgXMfdBq10_to__to { 0% {transform: translate(126.482498px,428.565994px)} 50% {transform: translate(126.482498px,502.035994px)} 100% {transform: translate(126.482498px,428.565994px)}} #e0RYgXMfdBq11_to {animation: e0RYgXMfdBq11_to__to 20000ms linear infinite normal forwards}@keyframes e0RYgXMfdBq11_to__to { 0% {transform: translate(126.482498px,358.039505px)} 50% {transform: translate(126.482498px,503.015505px)} 100% {transform: translate(126.482498px,358.039505px)}} #e0RYgXMfdBq12_to {animation: e0RYgXMfdBq12_to__to 20000ms linear infinite normal forwards}@keyframes e0RYgXMfdBq12_to__to { 0% {transform: translate(126.482498px,286.043991px)} 50% {transform: translate(126.482498px,502.525991px)} 100% {transform: translate(126.482498px,286.043991px)}} #e0RYgXMfdBq13_to {animation: e0RYgXMfdBq13_to__to 20000ms linear infinite normal forwards}@keyframes e0RYgXMfdBq13_to__to { 0% {transform: translate(126.482498px,214.0485px)} 50% {transform: translate(126.482498px,502.0365px)} 100% {transform: translate(126.482498px,214.0485px)}} #e0RYgXMfdBq14_to {animation: e0RYgXMfdBq14_to__to 20000ms linear infinite normal forwards}@keyframes e0RYgXMfdBq14_to__to { 0% {transform: translate(126.482498px,144.011696px)} 50% {transform: translate(126.482498px,501.546296px)} 100% {transform: translate(126.482498px,144.011696px)}} #e0RYgXMfdBq15_to {animation: e0RYgXMfdBq15_to__to 20000ms linear infinite normal forwards}@keyframes e0RYgXMfdBq15_to__to { 0% {transform: translate(126.482498px,72.015999px)} 50% {transform: translate(126.482498px,502.035999px)} 100% {transform: translate(126.482498px,72.015999px)}} </style><defs><linearGradient id="e0RYgXMfdBq2-stroke" x1="10.6555" y1="1027.75" x2="28.8997" y2="946.723" spreadMethod="pad" gradientUnits="userSpaceOnUse" gradientTransform="translate(0 0)"><stop id="e0RYgXMfdBq2-stroke-0" offset="0%" stop-color="#f44242"></stop><stop id="e0RYgXMfdBq2-stroke-1" offset="100%" stop-color="#569ef0"></stop></linearGradient><linearGradient id="e0RYgXMfdBq3-stroke" x1="10.6555" y1="954.288" x2="28.8997" y2="873.257" spreadMethod="pad" gradientUnits="userSpaceOnUse" gradientTransform="translate(0 0)"><stop id="e0RYgXMfdBq3-stroke-0" offset="0%" stop-color="#f44242"></stop><stop id="e0RYgXMfdBq3-stroke-1" offset="100%" stop-color="#569ef0"></stop></linearGradient><linearGradient id="e0RYgXMfdBq4-stroke" x1="10.6555" y1="884.122" x2="29.3814" y2="802.084" spreadMethod="pad" gradientUnits="userSpaceOnUse" gradientTransform="translate(0 0)"><stop id="e0RYgXMfdBq4-stroke-0" offset="0%" stop-color="#f44242"></stop><stop id="e0RYgXMfdBq4-stroke-1" offset="100%" stop-color="#569ef0"></stop></linearGradient><linearGradient id="e0RYgXMfdBq5-stroke" x1="10.6555" y1="811.946" x2="29.1399" y2="730.411" spreadMethod="pad" gradientUnits="userSpaceOnUse" gradientTransform="translate(0 0)"><stop id="e0RYgXMfdBq5-stroke-0" offset="0%" stop-color="#f44242"></stop><stop id="e0RYgXMfdBq5-stroke-1" offset="100%" stop-color="#569ef0"></stop></linearGradient><linearGradient id="e0RYgXMfdBq6-stroke" x1="10.6555" y1="739.77" x2="28.8997" y2="658.74" spreadMethod="pad" gradientUnits="userSpaceOnUse" gradientTransform="translate(0 0)"><stop id="e0RYgXMfdBq6-stroke-0" offset="0%" stop-color="#f44242"></stop><stop id="e0RYgXMfdBq6-stroke-1" offset="100%" stop-color="#569ef0"></stop></linearGradient><linearGradient id="e0RYgXMfdBq7-stroke" x1="10.6555" y1="669.553" x2="28.6609" y2="589.028" spreadMethod="pad" gradientUnits="userSpaceOnUse" gradientTransform="translate(0 0)"><stop id="e0RYgXMfdBq7-stroke-0" offset="0%" stop-color="#f44242"></stop><stop id="e0RYgXMfdBq7-stroke-1" offset="100%" stop-color="#569ef0"></stop></linearGradient><linearGradient id="e0RYgXMfdBq8-stroke" x1="10.6555" y1="597.739" x2="28.8997" y2="516.709" spreadMethod="pad" gradientUnits="userSpaceOnUse" gradientTransform="translate(0 0)"><stop id="e0RYgXMfdBq8-stroke-0" offset="0%" stop-color="#f44242"></stop><stop id="e0RYgXMfdBq8-stroke-1" offset="100%" stop-color="#569ef0"></stop></linearGradient><linearGradient id="e0RYgXMfdBq9-stroke" x1="10.6555" y1="528.192" x2="28.8997" y2="447.162" spreadMethod="pad" gradientUnits="userSpaceOnUse" gradientTransform="translate(0 0)"><stop id="e0RYgXMfdBq9-stroke-0" offset="0%" stop-color="#f44242"></stop><stop id="e0RYgXMfdBq9-stroke-1" offset="100%" stop-color="#569ef0"></stop></linearGradient><linearGradient id="e0RYgXMfdBq10-stroke" x1="10.6555" y1="454.726" x2="28.8997" y2="373.696" spreadMethod="pad" gradientUnits="userSpaceOnUse" gradientTransform="translate(0 0)"><stop id="e0RYgXMfdBq10-stroke-0" offset="0%" stop-color="#f44242"></stop><stop id="e0RYgXMfdBq10-stroke-1" offset="100%" stop-color="#569ef0"></stop></linearGradient><linearGradient id="e0RYgXMfdBq11-stroke" x1="10.6555" y1="384.561" x2="29.3814" y2="302.523" spreadMethod="pad" gradientUnits="userSpaceOnUse" gradientTransform="translate(0 0)"><stop id="e0RYgXMfdBq11-stroke-0" offset="0%" stop-color="#f44242"></stop><stop id="e0RYgXMfdBq11-stroke-1" offset="100%" stop-color="#569ef0"></stop></linearGradient><linearGradient id="e0RYgXMfdBq12-stroke" x1="10.6555" y1="312.385" x2="29.1399" y2="230.85" spreadMethod="pad" gradientUnits="userSpaceOnUse" gradientTransform="translate(0 0)"><stop id="e0RYgXMfdBq12-stroke-0" offset="0%" stop-color="#f44242"></stop><stop id="e0RYgXMfdBq12-stroke-1" offset="100%" stop-color="#569ef0"></stop></linearGradient><linearGradient id="e0RYgXMfdBq13-stroke" x1="10.6555" y1="240.209" x2="28.8997" y2="159.178" spreadMethod="pad" gradientUnits="userSpaceOnUse" gradientTransform="translate(0 0)"><stop id="e0RYgXMfdBq13-stroke-0" offset="0%" stop-color="#f44242"></stop><stop id="e0RYgXMfdBq13-stroke-1" offset="100%" stop-color="#569ef0"></stop></linearGradient><linearGradient id="e0RYgXMfdBq14-stroke" x1="10.6555" y1="169.992" x2="28.6609" y2="89.4666" spreadMethod="pad" gradientUnits="userSpaceOnUse" gradientTransform="translate(0 0)"><stop id="e0RYgXMfdBq14-stroke-0" offset="0%" stop-color="#f44242"></stop><stop id="e0RYgXMfdBq14-stroke-1" offset="100%" stop-color="#569ef0"></stop></linearGradient><linearGradient id="e0RYgXMfdBq15-stroke" x1="10.6555" y1="98.1766" x2="28.8997" y2="17.146" spreadMethod="pad" gradientUnits="userSpaceOnUse" gradientTransform="translate(0 0)"><stop id="e0RYgXMfdBq15-stroke-0" offset="0%" stop-color="#f44242"></stop><stop id="e0RYgXMfdBq15-stroke-1" offset="100%" stop-color="#569ef0"></stop></linearGradient></defs><g id="e0RYgXMfdBq2_to" transform="translate(126.482498,1001.593506)"><path d="M126.482,1072.61c69.303,0,125.483-31.8,125.483-71.02c0-39.218-56.18-71.013-125.483-71.013C57.1804,930.577,1,962.372,1,1001.59c0,39.22,56.1804,71.02,125.482,71.02Z" transform="translate(-126.482498,-1001.593506)" fill="none" stroke="url(#e0RYgXMfdBq2-stroke)" stroke-width="2" stroke-miterlimit="10"></path></g><g id="e0RYgXMfdBq3_to" transform="translate(126.482498,928.127502)"><path d="M126.482,999.144c69.303,0,125.483-31.795,125.483-71.016c0-39.222-56.18-71.017-125.483-71.017C57.1804,857.111,1,888.906,1,928.128c0,39.221,56.1804,71.016,125.482,71.016Z" transform="translate(-126.482498,-928.127502)" fill="none" stroke="url(#e0RYgXMfdBq3-stroke)" stroke-width="2" stroke-miterlimit="10"></path></g><g id="e0RYgXMfdBq4_to" transform="translate(126.482498,857.600983)"><path d="M126.482,927.635c69.303,0,125.483-31.794787,125.483-71.015s-56.18-71.015-125.483-71.015C57.1804,785.605,1,817.399787,1,856.62s56.1804,71.015,125.482,71.015Z" transform="translate(-126.482498,-857.600983)" fill="none" stroke="url(#e0RYgXMfdBq4-stroke)" stroke-width="2" stroke-miterlimit="10"></path></g><g id="e0RYgXMfdBq5_to" transform="translate(126.482498,785.605499)"><path d="M126.482,856.13c69.303,0,125.483-31.794396,125.483-71.015497c0-39.220107-56.18-71.014503-125.483-71.014503C57.1804,714.1,1,745.894396,1,785.114503C1,824.335604,57.1804,856.13,126.482,856.13Z" transform="translate(-126.482498,-785.605499)" fill="none" stroke="url(#e0RYgXMfdBq5-stroke)" stroke-width="2" stroke-miterlimit="10"></path></g><g id="e0RYgXMfdBq6_to" transform="translate(126.482498,713.609985)"><path d="M126.482,784.626c69.303,0,125.483-31.795,125.483-71.016s-56.18-71.016-125.483-71.016C57.1804,642.594,1,674.389,1,713.61s56.1804,71.016,125.482,71.016Z" transform="translate(-126.482498,-713.609985)" fill="none" stroke="url(#e0RYgXMfdBq6-stroke)" stroke-width="2" stroke-miterlimit="10"></path></g><g id="e0RYgXMfdBq7_to" transform="translate(126.482498,643.573486)"><path d="M126.482,715.077c69.303,0,125.483-31.79471,125.483-71.015503c0-39.219787-56.18-71.014497-125.483-71.014497C57.1804,573.047,1,604.84171,1,644.061497C1,683.28229,57.1804,715.077,126.482,715.077Z" transform="translate(-126.482498,-643.573486)" fill="none" stroke="url(#e0RYgXMfdBq7-stroke)" stroke-width="2" stroke-miterlimit="10"></path></g><g id="e0RYgXMfdBq8_to" transform="translate(126.482498,571.578491)"><path d="M126.482,642.595c69.303,0,125.483-31.795,125.483-71.016s-56.18-71.017-125.483-71.017C57.1804,500.562,1,532.358,1,571.579s56.1804,71.016,125.482,71.016Z" transform="translate(-126.482498,-571.578491)" fill="none" stroke="url(#e0RYgXMfdBq8-stroke)" stroke-width="2" stroke-miterlimit="10"></path></g><path d="M126.482,573.048c69.303,0,125.483-31.795,125.483-71.016s-56.18-71.016-125.483-71.016C57.1804,431.016,1,462.811,1,502.032s56.1804,71.016,125.482,71.016Z" fill="none" stroke="url(#e0RYgXMfdBq9-stroke)" stroke-width="2" stroke-miterlimit="10"></path><g id="e0RYgXMfdBq10_to" transform="translate(126.482498,428.565994)"><path d="M126.482,499.582c69.303,0,125.483-31.795,125.483-71.016s-56.18-71.016-125.483-71.016C57.1804,357.55,1,389.345,1,428.566s56.1804,71.016,125.482,71.016Z" transform="translate(-126.482498,-428.565994)" fill="none" stroke="url(#e0RYgXMfdBq10-stroke)" stroke-width="2" stroke-miterlimit="10"></path></g><g id="e0RYgXMfdBq11_to" transform="translate(126.482498,358.039505)"><path d="M126.482,428.074c69.303,0,125.483-31.794022,125.483-71.014507s-56.18-71.015493-125.483-71.015493C57.1804,286.044,1,317.839008,1,357.059493s56.1804,71.014507,125.482,71.014507Z" transform="translate(-126.482498,-358.039505)" fill="none" stroke="url(#e0RYgXMfdBq11-stroke)" stroke-width="2" stroke-miterlimit="10"></path></g><g id="e0RYgXMfdBq12_to" transform="translate(126.482498,286.043991)"><path d="M126.482,356.568c69.303,0,125.483-31.794174,125.483-71.015s-56.18-71.015-125.483-71.015C57.1804,214.538,1,246.332174,1,285.553s56.1804,71.015,125.482,71.015Z" transform="translate(-126.482498,-286.043991)" fill="none" stroke="url(#e0RYgXMfdBq12-stroke)" stroke-width="2" stroke-miterlimit="10"></path></g><g id="e0RYgXMfdBq13_to" transform="translate(126.482498,214.0485)"><path d="M126.482,285.065c69.303,0,125.483-31.795,125.483-71.017c0-39.221-56.18-71.016-125.483-71.016C57.1804,143.032,1,174.827,1,214.048c0,39.222,56.1804,71.017,125.482,71.017Z" transform="translate(-126.482498,-214.0485)" fill="none" stroke="url(#e0RYgXMfdBq13-stroke)" stroke-width="2" stroke-miterlimit="10"></path></g><g id="e0RYgXMfdBq14_to" transform="translate(126.482498,144.011696)"><path d="M126.482,215.5154c69.303,0,125.483-31.794801,125.483-71.014698c0-39.220904-56.18-71.015302-125.483-71.015302C57.1804,73.4854,1,105.279798,1,144.500702C1,183.720599,57.1804,215.5154,126.482,215.5154Z" transform="translate(-126.482498,-144.011696)" fill="none" stroke="url(#e0RYgXMfdBq14-stroke)" stroke-width="2" stroke-miterlimit="10"></path></g><g id="e0RYgXMfdBq15_to" transform="translate(126.482498,72.015999)"><path d="M126.482,143.032c69.303,0,125.483-31.795,125.483-71.0158C251.965,32.795,195.785,1,126.482,1C57.1804,1,1,32.795,1,72.0162C1,111.237,57.1804,143.032,126.482,143.032Z" transform="translate(-126.482498,-72.015999)" fill="none" stroke="url(#e0RYgXMfdBq15-stroke)" stroke-width="2" stroke-miterlimit="10"></path></g></svg>