<svg width="119" height="71" viewBox="0 0 119 71" fill="none" xmlns="http://www.w3.org/2000/svg">
<path fill-rule="evenodd" clip-rule="evenodd" d="M44.7618 45.2996L43.8517 43.0097L36.4535 47.915C26.4518 42.6712 18.1058 36.9782 12.1352 31.5106C7.95334 27.6811 4.97818 23.9997 3.39565 20.6983C1.8085 17.3872 1.68433 14.6035 2.90593 12.4288C4.47616 9.63339 8.3372 7.7543 14.3494 7.06877C20.1076 6.41219 27.5411 6.89349 35.9832 8.49322V14.4183H59.3722L42.8233 25.5166L48.4272 39.5263L50.2783 38.7971C53.6781 37.4578 56.9833 36.8043 60.2052 36.8043C63.4559 36.8043 65.8661 37.5524 67.6152 38.8643L67.6282 38.874L67.6413 38.8835C69.1862 40.0036 70.0952 41.782 70.0952 44.6443C70.0952 48.5784 68.9109 51.3331 66.7669 53.2192C64.5096 55.1503 61.6088 56.1743 57.9092 56.1743C54.357 56.1743 51.8103 55.3038 50.0329 53.791C48.1875 52.1723 46.3976 49.4153 44.7618 45.2996ZM35.9832 6.51665C27.6391 4.97486 20.1635 4.49496 14.229 5.17164C8.01991 5.87962 3.16923 7.90049 1.06605 11.6447C-0.574599 14.5654 -0.23117 17.9973 1.4782 21.5634C3.1922 25.139 6.34249 28.9961 10.6141 32.9078C16.5645 38.3569 24.7711 43.9848 34.5486 49.1781L32.9813 50.2173L33.4601 51.6674C35.4658 57.7417 38.5307 62.4908 42.7476 65.7438C46.9696 69.0008 52.0614 70.5883 57.9092 70.5883C65.3242 70.5883 71.4673 68.7702 76.1268 64.9454C81.7682 66.2632 87.0937 67.141 91.9292 67.5621C98.0965 68.0991 103.526 67.8986 107.819 66.8829C112.101 65.87 115.422 64 117.063 61.0793C118.638 58.2742 118.384 54.9962 116.848 51.5857C115.31 48.1693 112.435 44.4888 108.51 40.7455C100.756 33.352 88.746 25.5655 74.2179 18.9341L83.1152 13.5452V0.988281H35.9832V6.51665ZM72.1509 20.186L63.3522 25.5152C69.5524 25.6464 74.6692 27.2284 78.4701 30.4886C82.5576 33.891 84.5092 38.7101 84.5092 44.6443C84.5092 52.3838 82.3674 58.7035 77.8706 63.3439C83.0087 64.4995 87.8529 65.2747 92.2623 65.6586C98.2999 66.1843 103.463 65.9711 107.427 65.0334C111.402 64.0929 114.001 62.4699 115.223 60.2952C116.396 58.2064 116.329 55.5573 114.914 52.4138C113.501 49.2762 110.798 45.7758 106.962 42.1178C99.2958 34.808 87.2649 27.0199 72.6109 20.3934C72.4536 20.3222 72.3003 20.2531 72.1509 20.186ZM75.5529 62.8016C75.7146 62.6559 75.8741 62.5075 76.0312 62.3563C80.3499 58.1469 82.5092 52.2429 82.5092 44.6443C82.5092 39.1776 80.7326 34.9683 77.1792 32.0163C73.6806 29.0096 68.7879 27.5063 62.5012 27.5063C61.6843 27.5063 60.8191 27.5384 59.9058 27.6026C58.4357 27.706 56.8409 27.8925 55.1212 28.1623L81.1152 12.4183V2.98828H37.9832V12.4183H65.9452L45.2812 26.2763L49.5452 36.9361C53.1532 35.5148 56.7066 34.8043 60.2052 34.8043C63.7586 34.8043 66.6286 35.6243 68.8152 37.2643C71.0019 38.8496 72.0952 41.3096 72.0952 44.6443C72.0952 49.0176 70.7559 52.3796 68.0772 54.7303C65.8257 56.6602 63.072 57.779 59.8162 58.0867C65.2312 60.0038 70.5188 61.5786 75.5529 62.8016ZM46.4294 52.7398C45.4616 51.4036 44.551 49.794 43.6976 47.9113C43.4271 47.3144 43.1623 46.6901 42.9032 46.0383L38.4896 48.9647C41.0399 50.2573 43.6902 51.5192 46.4294 52.7398ZM36.573 50.2355L35.3592 51.0403C37.2726 56.8349 40.1426 61.2083 43.9692 64.1603C47.7959 67.1123 52.4426 68.5883 57.9092 68.5883C64.3213 68.5883 69.5584 67.1709 73.6206 64.3363C65.5628 62.3021 56.931 59.4031 48.2096 55.6863C44.1464 53.9546 40.2561 52.1275 36.573 50.2355Z" fill="url(#paint0_linear_1981_8014)"/>
<defs>
<linearGradient id="paint0_linear_1981_8014" x1="4.54481" y1="48.6078" x2="13.8147" y2="9.06027" gradientUnits="userSpaceOnUse">
<stop stop-color="#F44242"/>
<stop offset="1" stop-color="#569EF0"/>
</linearGradient>
</defs>
</svg>
