<svg width="119" height="71" viewBox="0 0 119 71" fill="none" xmlns="http://www.w3.org/2000/svg">
<path fill-rule="evenodd" clip-rule="evenodd" d="M34.0446 25.9105L33.8216 28.112H48.2188L48.4336 26.3546C49.0165 21.5858 50.2507 18.6601 51.7986 17.1122C53.3281 15.5827 55.6951 14.664 59.2404 14.664C62.4959 14.664 64.3867 15.5671 65.4563 16.9317L65.4645 16.9422L65.4729 16.9526C66.6642 18.4315 67.4084 20.7574 67.4084 24.226C67.4084 26.8171 66.5601 29.4041 64.7345 32.0191L64.7271 32.0296L64.7199 32.0402C62.916 34.696 59.7595 37.8846 55.1188 41.608L55.1099 41.6152C52.0518 44.0976 47.9906 47.1349 42.9177 50.7304C30.0348 44.6551 19.3504 37.7186 12.1352 31.1112C7.95334 27.2817 4.97818 23.6003 3.39565 20.2989C1.8085 16.9878 1.68433 14.2041 2.90593 12.0294C4.57982 9.04943 8.85931 7.11514 15.5285 6.55277C21.9383 6.01227 30.2106 6.7781 39.5195 8.81674C36.5319 12.9561 34.771 18.7372 34.0446 25.9105ZM40.893 7.12484C31.157 4.9342 22.3695 4.06762 15.4755 4.64894C8.65086 5.22442 3.30418 7.26083 1.06605 11.2452C-0.574599 14.166 -0.23117 17.5979 1.4782 21.1639C3.1922 24.7396 6.34249 28.5967 10.6141 32.5084C17.8397 39.1252 28.3921 46.0058 41.0441 52.0515C39.034 53.4618 36.879 54.9519 34.5788 56.5221L33.7064 57.1177V70.588H83.7904V66.1C86.6254 66.5828 89.3472 66.9379 91.9292 67.1627C98.0965 67.6997 103.526 67.4992 107.819 66.4835C112.101 65.4706 115.422 63.6006 117.063 60.6799C118.49 58.1387 118.415 55.2058 117.248 52.1458C116.081 49.0872 113.792 45.804 110.609 42.4477C104.256 35.749 94.1961 28.6057 81.7792 22.204C81.507 15.9641 79.9426 10.7898 76.9029 6.85932C73.3946 2.19274 67.2562 0.167969 59.2404 0.167969C52.0935 0.167969 46.2016 2.10736 41.8059 6.1978L41.7957 6.20738C41.4852 6.50037 41.1844 6.80625 40.893 7.12484ZM81.8208 24.4859C81.7744 28.3799 80.6852 32.1314 78.6061 35.7157C76.5381 39.3748 73.214 43.1254 68.7466 46.9785L68.7451 46.9798C65.4925 49.7795 61.3885 52.8445 56.4467 56.174H83.7904V64.1312C86.7534 64.6495 89.5878 65.0263 92.2623 65.2592C98.2999 65.7849 103.463 65.5717 107.427 64.634C111.402 63.6935 114.001 62.0705 115.223 59.8958C116.287 58.0022 116.331 55.6517 115.275 52.8822C114.218 50.1114 112.092 47.019 108.997 43.7561C103.024 37.4574 93.5806 30.6666 81.8208 24.4859ZM81.7904 63.7635V58.174H61.2093C68.4171 60.6578 75.3779 62.5287 81.7904 63.7635ZM51.8689 56.8008C51.1704 57.2536 50.4569 57.7114 49.7284 58.174H55.3936C64.6475 61.67 73.6451 64.2119 81.7904 65.7418V68.588H35.7064V58.174C38.3713 56.3548 40.8452 54.6405 43.1282 53.0309C44.789 53.7986 46.4837 54.5513 48.2096 55.2868C49.4315 55.8076 50.6518 56.3123 51.8689 56.8008ZM53.8956 55.473C59.442 51.7987 63.9569 48.4624 67.4404 45.464C71.8137 41.692 74.957 38.1113 76.8704 34.722C78.8384 31.3326 79.8224 27.834 79.8224 24.226C79.8224 17.338 78.319 11.9533 75.3124 8.07197C72.3604 4.13597 67.003 2.16797 59.2404 2.16797C52.4617 2.16797 47.1044 3.9993 43.1684 7.66197C39.5936 11.0354 37.2941 16.5187 36.2698 24.112C36.1819 24.7631 36.1035 25.4298 36.0344 26.112H46.4484C47.0497 21.192 48.3617 17.7206 50.3844 15.698C52.407 13.6753 55.359 12.664 59.2404 12.664C62.8484 12.664 65.445 13.6753 67.0304 15.698C68.6157 17.666 69.4084 20.5086 69.4084 24.226C69.4084 27.2873 68.397 30.2666 66.3744 33.164C64.4064 36.0613 61.0717 39.396 56.3704 43.168C53.4612 45.5296 49.6734 48.3733 45.007 51.6992C46.3782 52.3244 47.7727 52.9395 49.1891 53.5431C50.7626 54.2137 52.3324 54.8571 53.8956 55.473Z" fill="url(#paint0_linear_1981_8009)"/>
<defs>
<linearGradient id="paint0_linear_1981_8009" x1="4.5448" y1="48.3484" x2="14.0227" y2="8.38438" gradientUnits="userSpaceOnUse">
<stop stop-color="#F44242"/>
<stop offset="1" stop-color="#569EF0"/>
</linearGradient>
</defs>
</svg>
