<svg width="119" height="70" viewBox="0 0 119 70" fill="none" xmlns="http://www.w3.org/2000/svg">
<path fill-rule="evenodd" clip-rule="evenodd" d="M71.7665 2.29297V0.292969H69.7665H59.1065H58.2781L57.6923 0.878755L50.2374 8.33366C48.4517 7.77786 46.9259 7.32466 45.9688 7.07279C35.0547 4.20085 25.0891 2.87509 17.2711 3.24005C13.363 3.42249 9.93894 4.02959 7.18564 5.11314C4.42435 6.19983 2.28057 7.79103 1.06605 9.95316C-0.574599 12.8739 -0.23117 16.3058 1.4782 19.8719C3.1922 23.4475 6.34249 27.3046 10.6141 31.2163C19.1648 39.0467 32.3746 47.2463 48.2096 53.9948C51.1922 55.2659 54.1643 56.4413 57.1065 57.5192V67.893V69.893H59.1065H69.7665H71.7665V67.893V62.1641C79.0292 64.0959 85.8646 65.3425 91.9292 65.8706C98.0965 66.4076 103.526 66.2071 107.819 65.1914C112.101 64.1785 115.422 62.3085 117.063 59.3878C118.638 56.5827 118.384 53.3047 116.848 49.8942C115.31 46.4778 112.435 42.7973 108.51 39.054C100.651 31.5611 88.4222 23.6646 73.6304 16.9757C72.935 16.6613 72.3165 16.3857 71.7665 16.144V2.29297ZM71.7665 18.3222V60.1365C79.1849 62.1477 86.1425 63.4342 92.2623 63.9671C98.2999 64.4929 103.463 64.2796 107.427 63.3419C111.402 62.4014 114.001 60.7784 115.223 58.6037C116.396 56.5149 116.329 53.8658 114.914 50.7223C113.501 47.5847 110.798 44.0843 106.962 40.4263C99.2958 33.1165 87.2649 25.3284 72.6109 18.7019C72.3154 18.5683 72.0342 18.4418 71.7665 18.3222ZM69.7665 59.5798V4.29297V2.29297H67.7665H61.35H61.1065H59.1065L57.619 3.78047L57.1065 4.29297L36.7205 24.679L42.0108 31.1595L43.2805 32.715L44.7171 31.3122L57.1065 19.2143L59.1065 17.2613V20.0567V56.1423C62.7266 57.4412 66.2924 58.5881 69.7665 59.5798ZM59.1065 58.2386V65.893V67.893H61.1065H67.7665H69.7665V65.893V61.6178C66.2899 60.6433 62.7244 59.5158 59.1065 58.2386ZM57.1065 55.4112V22.0096L44.6778 34.1459L43.1137 35.6732L41.7312 33.9797L35.1712 25.9437L34.0279 24.5432L35.3063 23.2648L48.6656 9.90543C47.237 9.46636 46.0468 9.11715 45.2728 8.91348C34.4808 6.07367 24.7505 4.79881 17.2383 5.14949C13.4814 5.32487 10.3317 5.90466 7.89733 6.86271C5.47089 7.81763 3.81285 9.12274 2.90593 10.7373C1.68433 12.912 1.8085 15.6957 3.39565 19.0068C4.97818 22.3082 7.95334 25.9896 12.1352 29.8191C20.4913 37.4713 33.5005 45.565 49.1891 52.251C51.8434 53.3822 54.4872 54.436 57.1065 55.4112Z" fill="url(#paint0_linear_1981_8001)"/>
<defs>
<linearGradient id="paint0_linear_1981_8001" x1="4.54481" y1="47.9124" x2="13.8147" y2="8.36494" gradientUnits="userSpaceOnUse">
<stop stop-color="#F44242"/>
<stop offset="1" stop-color="#569EF0"/>
</linearGradient>
</defs>
</svg>
