<svg width="42" height="42" viewBox="0 0 42 42" fill="none" xmlns="http://www.w3.org/2000/svg">
<path fill-rule="evenodd" clip-rule="evenodd" d="M1.96094 21C1.96094 10.2304 10.6914 1.5 21.4609 1.5C32.2305 1.5 40.9609 10.2304 40.9609 21C40.9609 31.7696 32.2305 40.5 21.4609 40.5C10.6914 40.5 1.96094 31.7696 1.96094 21ZM21.4609 0.5C10.1391 0.5 0.960938 9.67816 0.960938 21C0.960938 32.3218 10.1391 41.5 21.4609 41.5C32.7828 41.5 41.9609 32.3218 41.9609 21C41.9609 9.67816 32.7828 0.5 21.4609 0.5ZM32.0547 15.5683C32.432 15.7922 32.7448 16.1101 32.9627 16.4909C33.1771 16.8511 33.2988 17.2587 33.3172 17.6774C33.3355 18.0961 33.2499 18.5128 33.0681 18.8904L28.8735 27.2017C28.7672 27.4106 28.6052 27.5861 28.4053 27.7085C28.2054 27.831 27.9756 27.8958 27.7412 27.8956L16.3171 27.8528C16.0305 27.8616 15.7494 27.773 15.5195 27.6016C15.2897 27.4302 15.1246 27.186 15.0513 26.9088L11.5966 13.8722L10.0226 13.8663C9.686 13.8651 9.36364 13.7302 9.12648 13.4912C8.88933 13.2523 8.7568 12.9289 8.75806 12.5923C8.75932 12.2556 8.89426 11.9332 9.1332 11.6961C9.37214 11.4589 9.6955 11.3264 10.0322 11.3277L12.5708 11.3372C12.8574 11.3284 13.1386 11.417 13.3684 11.5884C13.5983 11.7598 13.7633 12.004 13.8367 12.2812L14.5621 15.1527L30.8097 15.2135C31.2484 15.2222 31.6773 15.3445 32.0547 15.5683ZM17.5017 30.823C17.4918 31.8745 16.6314 32.7189 15.5799 32.709C14.5283 32.6991 13.6839 31.8386 13.6939 30.7871C13.7037 29.7356 14.5642 28.8912 15.6157 28.9011C16.6672 28.911 17.5116 29.7714 17.5017 30.823ZM28.2704 32.8282C29.3219 32.8381 30.1824 31.9937 30.1923 30.9422C30.2022 29.8906 29.3578 29.0302 28.3063 29.0203C27.2548 29.0104 26.3943 29.8548 26.3844 30.9063C26.3745 31.9578 27.2189 32.8183 28.2704 32.8282Z" fill="url(#paint0_linear_4922_1075)"/>
<defs>
<linearGradient id="paint0_linear_4922_1075" x1="2.53835" y1="28.5517" x2="10.9797" y2="7.33333" gradientUnits="userSpaceOnUse">
<stop stop-color="#F44242"/>
<stop offset="1" stop-color="#569EF0"/>
</linearGradient>
</defs>
</svg>
