<svg width="42" height="42" viewBox="0 0 42 42" fill="none" xmlns="http://www.w3.org/2000/svg">
<path fill-rule="evenodd" clip-rule="evenodd" d="M1.96094 21C1.96094 10.2304 10.6914 1.5 21.4609 1.5C32.2305 1.5 40.9609 10.2304 40.9609 21C40.9609 31.7696 32.2305 40.5 21.4609 40.5C10.6914 40.5 1.96094 31.7696 1.96094 21ZM21.4609 0.5C10.1391 0.5 0.960938 9.67816 0.960938 21C0.960938 32.3218 10.1391 41.5 21.4609 41.5C32.7828 41.5 41.9609 32.3218 41.9609 21C41.9609 9.67816 32.7828 0.5 21.4609 0.5ZM18.0326 8.62718C16.9907 9.66905 16.4054 11.0821 16.4054 12.5556C16.4054 14.029 16.9907 15.4421 18.0326 16.4839C19.0744 17.5258 20.4875 18.1111 21.9609 18.1111C23.4344 18.1111 24.8474 17.5258 25.8893 16.4839C26.9312 15.4421 27.5165 14.029 27.5165 12.5556C27.5165 11.0821 26.9312 9.66905 25.8893 8.62718C24.8474 7.58532 23.4344 7 21.9609 7C20.4875 7 19.0744 7.58532 18.0326 8.62718ZM11.4949 22.9229C12.7973 21.6205 14.5636 20.8889 16.4054 20.8889H27.5165C29.3583 20.8889 31.1246 21.6205 32.427 22.9229C33.7293 24.2252 34.4609 25.9916 34.4609 27.8333C34.4609 28.9384 34.0219 29.9982 33.2405 30.7796C32.4591 31.561 31.3993 32 30.2943 32H13.6276C12.5225 32 11.4627 31.561 10.6813 30.7796C9.89992 29.9982 9.46094 28.9384 9.46094 27.8333C9.46094 25.9916 10.1926 24.2252 11.4949 22.9229Z" fill="url(#paint0_linear_4922_1072)"/>
<defs>
<linearGradient id="paint0_linear_4922_1072" x1="2.53835" y1="28.5517" x2="10.9797" y2="7.33333" gradientUnits="userSpaceOnUse">
<stop stop-color="#F44242"/>
<stop offset="1" stop-color="#569EF0"/>
</linearGradient>
</defs>
</svg>
