<svg width="137" height="34" viewBox="0 0 137 34" fill="none" xmlns="http://www.w3.org/2000/svg">
<path d="M62.1832 0.5C61.9071 0.5 61.6832 0.723858 61.6832 1C61.6832 1.27614 61.9071 1.5 62.1832 1.5V0.5ZM0.556603 29.6464C0.361341 29.8417 0.361341 30.1583 0.556603 30.3536L3.73858 33.5355C3.93385 33.7308 4.25043 33.7308 4.44569 33.5355C4.64095 33.3403 4.64095 33.0237 4.44569 32.8284L1.61726 30L4.44569 27.1716C4.64095 26.9763 4.64095 26.6597 4.44569 26.4645C4.25043 26.2692 3.93385 26.2692 3.73858 26.4645L0.556603 29.6464ZM62.1832 1.5H135.91V0.5H62.1832V1.5ZM106.91 29.5H0.910156V30.5H106.91V29.5ZM135.41 1C135.41 16.7401 122.65 29.5 106.91 29.5V30.5C123.203 30.5 136.41 17.2924 136.41 1H135.41Z" fill="url(#paint0_linear_4973_4353)"/>
<defs>
<linearGradient id="paint0_linear_4973_4353" x1="6.10406" y1="20.8414" x2="7.57889" y2="3.58401" gradientUnits="userSpaceOnUse">
<stop stop-color="#F44242"/>
<stop offset="1" stop-color="#569EF0"/>
</linearGradient>
</defs>
</svg>
