<svg width="189" height="43" viewBox="0 0 189 43" fill="none" xmlns="http://www.w3.org/2000/svg">
<path d="M55.3675 6.22581C53.772 3.51803 49.0664 2.99892 42.0921 4.75267C38.6721 2.03802 34.5012 0.404558 30.1248 0.0659073C25.7485 -0.272744 21.3703 0.699174 17.563 2.85456C13.7557 5.00995 10.6964 8.24848 8.78518 12.1466C6.87397 16.0448 6.19983 20.4211 6.8509 24.7033C1.78258 29.7751 -0.128122 34.0566 1.4744 36.7737C2.45345 38.4363 4.55617 39.2781 7.63794 39.2781C9.60921 39.243 11.5708 38.9977 13.4886 38.5462C13.901 38.455 14.323 38.3544 14.7497 38.2469C17.9536 40.7901 21.8211 42.388 25.9061 42.8562C29.9911 43.3244 34.1271 42.6438 37.8367 40.8929C41.5464 39.1421 44.6786 36.3923 46.872 32.9609C49.0653 29.5295 50.2304 25.5563 50.2327 21.4998C50.2344 20.4253 50.1551 19.3522 49.9957 18.2892C53.0229 15.2494 55.0474 12.378 55.6851 9.9952C56.0857 8.5314 55.9767 7.26403 55.3675 6.22581ZM28.4233 1.85782C33.0267 1.86333 37.4865 3.43949 41.046 6.31892C44.6055 9.19835 47.0456 13.2037 47.9522 17.6556C44.119 21.3244 38.7543 25.2504 32.6643 28.7018C26.1902 32.3707 20.1452 34.8399 15.2144 36.1845C12.196 33.5397 10.0639 30.0524 9.10092 26.185C8.1379 22.3176 8.38941 18.2528 9.82209 14.5296C11.2548 10.8064 13.801 7.60074 17.123 5.33765C20.445 3.07456 24.386 1.86098 28.4233 1.85782ZM3.11722 35.8337C2.10972 34.1267 3.70987 30.7829 7.32502 26.934C8.30523 30.6371 10.2692 34.0153 13.0144 36.7199C7.76595 37.8681 4.11761 37.536 3.11722 35.8337ZM28.4233 41.1417C24.3527 41.1457 20.3796 39.9128 17.0445 37.6108C22.1602 36.0722 27.9089 33.5492 33.603 30.3246C39.3517 27.065 44.4153 23.4359 48.2604 19.9331C48.3031 20.4499 48.3315 20.9713 48.3315 21.4998C48.3253 26.7064 46.2259 31.6981 42.4939 35.3802C38.7619 39.0623 33.7018 41.1343 28.4233 41.1417ZM53.855 9.51116C53.3501 11.3818 51.821 13.6383 49.5287 16.0725C48.5423 12.3609 46.5683 8.97668 43.8108 6.27024C48.9906 5.14317 52.7219 5.46118 53.727 7.16582C54.0731 7.75741 54.1181 8.54543 53.855 9.51116Z" fill="url(#paint0_linear_4922_1059)"/>
<path d="M81.1409 24.5292C80.5676 25.7692 79.7343 26.7292 78.6409 27.4092C77.5476 28.0758 76.2143 28.4092 74.6409 28.4092C73.1076 28.4092 71.8009 28.0625 70.7209 27.3692C69.6543 26.6758 68.8409 25.7225 68.2809 24.5092C67.7343 23.2825 67.4609 21.8892 67.4609 20.3292C67.4609 18.7692 67.7343 17.3958 68.2809 16.2092C68.8276 15.0225 69.6409 14.0958 70.7209 13.4292C71.8009 12.7492 73.1076 12.4092 74.6409 12.4092C76.2409 12.4092 77.5876 12.7492 78.6809 13.4292C79.7743 14.0958 80.6143 15.0758 81.2009 16.3692L79.7009 17.4292C79.3943 16.6958 79.0009 16.0892 78.5209 15.6092C78.0543 15.1158 77.4943 14.7492 76.8409 14.5092C76.1876 14.2558 75.4543 14.1292 74.6409 14.1292C73.5609 14.1292 72.6076 14.3825 71.7809 14.8892C70.9676 15.3958 70.3343 16.1158 69.8809 17.0492C69.4276 17.9825 69.2009 19.0758 69.2009 20.3292C69.2009 21.6358 69.4276 22.7692 69.8809 23.7292C70.3343 24.6758 70.9676 25.4092 71.7809 25.9292C72.5943 26.4358 73.5476 26.6892 74.6409 26.6892C75.4543 26.6892 76.1809 26.5692 76.8209 26.3292C77.4743 26.0892 78.0343 25.7292 78.5009 25.2492C78.9676 24.7692 79.3543 24.1758 79.6609 23.4692L81.1409 24.5292ZM83.2031 20.3292C83.2031 18.7692 83.4765 17.3958 84.0231 16.2092C84.5831 15.0225 85.4031 14.0958 86.4831 13.4292C87.5765 12.7492 88.8898 12.4092 90.4231 12.4092C91.9565 12.4092 93.2631 12.7492 94.3431 13.4292C95.4231 14.0958 96.2365 15.0225 96.7831 16.2092C97.3431 17.3958 97.6231 18.7692 97.6231 20.3292C97.6231 21.8892 97.3431 23.2825 96.7831 24.5092C96.2365 25.7225 95.4165 26.6758 94.3231 27.3692C93.2431 28.0625 91.9431 28.4092 90.4231 28.4092C88.8898 28.4092 87.5765 28.0625 86.4831 27.3692C85.4031 26.6758 84.5831 25.7225 84.0231 24.5092C83.4765 23.2825 83.2031 21.8892 83.2031 20.3292ZM84.9631 20.3292C84.9631 21.5558 85.1765 22.6492 85.6031 23.6092C86.0298 24.5558 86.6498 25.3025 87.4631 25.8492C88.2898 26.3825 89.2765 26.6492 90.4231 26.6492C91.5698 26.6492 92.5498 26.3758 93.3631 25.8292C94.1765 25.2825 94.7965 24.5358 95.2231 23.5892C95.6498 22.6425 95.8631 21.5558 95.8631 20.3292C95.8631 19.1158 95.6498 18.0492 95.2231 17.1292C94.7965 16.2092 94.1765 15.4892 93.3631 14.9692C92.5498 14.4358 91.5698 14.1692 90.4231 14.1692C89.2765 14.1692 88.2898 14.4358 87.4631 14.9692C86.6498 15.4892 86.0298 16.2092 85.6031 17.1292C85.1765 18.0492 84.9631 19.1158 84.9631 20.3292ZM101.129 23.3492C101.662 24.5358 102.302 25.3892 103.049 25.9092C103.809 26.4292 104.736 26.6892 105.829 26.6892C107.002 26.6892 107.916 26.4825 108.569 26.0692C109.236 25.6558 109.569 25.0025 109.569 24.1092C109.569 23.2958 109.242 22.6225 108.589 22.0892C107.936 21.5558 106.982 21.1625 105.729 20.9092L104.729 20.6892C103.129 20.3692 101.916 19.8625 101.089 19.1692C100.276 18.4758 99.8689 17.5092 99.8689 16.2692C99.8689 15.4825 100.102 14.7958 100.569 14.2092C101.049 13.6225 101.676 13.1758 102.449 12.8692C103.222 12.5625 104.069 12.4092 104.989 12.4092C106.509 12.4092 107.716 12.7492 108.609 13.4292C109.502 14.1092 110.249 15.1358 110.849 16.5092L109.449 17.3692C108.942 16.2358 108.322 15.4092 107.589 14.8892C106.869 14.3692 105.989 14.1092 104.949 14.1092C103.922 14.1092 103.102 14.3025 102.489 14.6892C101.876 15.0758 101.569 15.6425 101.569 16.3892C101.569 17.0825 101.856 17.6358 102.429 18.0492C103.002 18.4625 103.862 18.8025 105.009 19.0692L105.969 19.2892C107.262 19.5825 108.296 19.9558 109.069 20.4092C109.856 20.8492 110.422 21.3758 110.769 21.9892C111.116 22.6025 111.282 23.3358 111.269 24.1892C111.256 25.5758 110.749 26.6292 109.749 27.3492C108.749 28.0558 107.429 28.4092 105.789 28.4092C104.202 28.4092 102.929 28.0625 101.969 27.3692C101.022 26.6625 100.242 25.6292 99.6289 24.2692L101.129 23.3492ZM115.022 12.4092V28.4092H113.262V12.4092H115.022ZM115.082 12.4092L122.102 28.4092H120.282L113.342 12.4092H115.082ZM128.842 12.4092L122.102 28.4092H120.282L127.102 12.4092H128.842ZM128.922 12.4092V28.4092H127.162V12.4092H128.922ZM130.918 20.3292C130.918 18.7692 131.191 17.3958 131.738 16.2092C132.298 15.0225 133.118 14.0958 134.198 13.4292C135.291 12.7492 136.605 12.4092 138.138 12.4092C139.671 12.4092 140.978 12.7492 142.058 13.4292C143.138 14.0958 143.951 15.0225 144.498 16.2092C145.058 17.3958 145.338 18.7692 145.338 20.3292C145.338 21.8892 145.058 23.2825 144.498 24.5092C143.951 25.7225 143.131 26.6758 142.038 27.3692C140.958 28.0625 139.658 28.4092 138.138 28.4092C136.605 28.4092 135.291 28.0625 134.198 27.3692C133.118 26.6758 132.298 25.7225 131.738 24.5092C131.191 23.2825 130.918 21.8892 130.918 20.3292ZM132.678 20.3292C132.678 21.5558 132.891 22.6492 133.318 23.6092C133.745 24.5558 134.365 25.3025 135.178 25.8492C136.005 26.3825 136.991 26.6492 138.138 26.6492C139.285 26.6492 140.265 26.3758 141.078 25.8292C141.891 25.2825 142.511 24.5358 142.938 23.5892C143.365 22.6425 143.578 21.5558 143.578 20.3292C143.578 19.1158 143.365 18.0492 142.938 17.1292C142.511 16.2092 141.891 15.4892 141.078 14.9692C140.265 14.4358 139.285 14.1692 138.138 14.1692C136.991 14.1692 136.005 14.4358 135.178 14.9692C134.365 15.4892 133.745 16.2092 133.318 17.1292C132.891 18.0492 132.678 19.1158 132.678 20.3292ZM149.064 20.7292H153.304C154.264 20.7292 155.097 20.6292 155.804 20.4292C156.51 20.2158 157.07 19.8692 157.484 19.3892C157.91 18.9092 158.124 18.2692 158.124 17.4692C158.124 16.7092 157.91 16.0758 157.484 15.5692C157.07 15.0625 156.497 14.6892 155.764 14.4492C155.044 14.2092 154.224 14.0892 153.304 14.0892H149.064V20.7292ZM149.064 22.4092V28.3892V28.4092H147.344V12.4092H153.304C155.224 12.4092 156.81 12.7958 158.064 13.5692C159.317 14.3292 159.944 15.6425 159.944 17.5092C159.944 18.6825 159.63 19.6358 159.004 20.3692C158.377 21.0892 157.564 21.6092 156.564 21.9292C155.577 22.2492 154.49 22.4092 153.304 22.4092H149.064ZM163.653 12.4092V28.4092H161.953V12.4092H163.653ZM172.153 21.2492H163.653V19.5692L172.153 19.5492V21.2492ZM173.453 14.1092H163.653V12.4292L173.453 12.4092V14.1092ZM173.453 28.4092H163.653V26.7292L173.453 26.7092V28.4092ZM182.089 12.4092V28.4092H180.389V12.4092H182.089ZM187.029 14.1092H175.449V12.4092H187.029V14.1092Z" fill="url(#paint1_linear_4922_1059)"/>
<defs>
<linearGradient id="paint0_linear_4922_1059" x1="-1.11486" y1="51.88" x2="60.0568" y2="4.29581" gradientUnits="userSpaceOnUse">
<stop stop-color="#F44242"/>
<stop offset="1" stop-color="#569EF0"/>
</linearGradient>
<linearGradient id="paint1_linear_4922_1059" x1="61.9431" y1="37.3655" x2="82.573" y2="-26.4115" gradientUnits="userSpaceOnUse">
<stop stop-color="#F44242"/>
<stop offset="1" stop-color="#569EF0"/>
</linearGradient>
</defs>
</svg>
