<svg width="188" height="43" viewBox="0 0 188 43" fill="none" xmlns="http://www.w3.org/2000/svg">
<path d="M54.4456 6.22581C52.8502 3.51803 48.1445 2.99892 41.1703 4.75267C37.7503 2.03802 33.5793 0.404558 29.203 0.0659073C24.8266 -0.272744 20.4485 0.699174 16.6411 2.85456C12.8338 5.00995 9.77451 8.24848 7.8633 12.1466C5.9521 16.0448 5.27795 20.4211 5.92903 24.7033C0.860701 29.7751 -1.05 34.0566 0.552524 36.7737C1.53158 38.4363 3.63429 39.2781 6.71606 39.2781C8.68733 39.243 10.649 38.9977 12.5667 38.5462C12.9792 38.455 13.4011 38.3544 13.8278 38.2469C17.0317 40.7901 20.8992 42.388 24.9842 42.8562C29.0692 43.3244 33.2052 42.6438 36.9149 40.8929C40.6245 39.1421 43.7568 36.3923 45.9501 32.9609C48.1434 29.5295 49.3085 25.5563 49.3109 21.4998C49.3125 20.4253 49.2333 19.3522 49.0738 18.2892C52.1011 15.2494 54.1255 12.378 54.7632 9.9952C55.1639 8.5314 55.0548 7.26403 54.4456 6.22581ZM27.5014 1.85782C32.1048 1.86333 36.5646 3.43949 40.1241 6.31892C43.6836 9.19835 46.1237 13.2037 47.0304 17.6556C43.1971 21.3244 37.8325 25.2504 31.7424 28.7018C25.2683 32.3707 19.2233 34.8399 14.2925 36.1845C11.2741 33.5397 9.14206 30.0524 8.17904 26.185C7.21602 22.3176 7.46753 18.2528 8.90022 14.5296C10.3329 10.8064 12.8791 7.60074 16.2011 5.33765C19.5232 3.07456 23.4641 1.86098 27.5014 1.85782ZM2.19534 35.8337C1.18784 34.1267 2.78799 30.7829 6.40315 26.934C7.38336 30.6371 9.34736 34.0153 12.0926 36.7199C6.84408 37.8681 3.19573 37.536 2.19534 35.8337ZM27.5014 41.1417C23.4308 41.1457 19.4578 39.9128 16.1226 37.6108C21.2383 36.0722 26.987 33.5492 32.6812 30.3246C38.4299 27.065 43.4934 23.4359 47.3385 19.9331C47.3812 20.4499 47.4097 20.9713 47.4097 21.4998C47.4034 26.7064 45.3041 31.6981 41.572 35.3802C37.84 39.0623 32.7799 41.1343 27.5014 41.1417ZM52.9331 9.51116C52.4282 11.3818 50.8992 13.6383 48.6068 16.0725C47.6205 12.3609 45.6464 8.97668 42.8889 6.27024C48.0687 5.14317 51.8 5.46118 52.8051 7.16582C53.1512 7.75741 53.1963 8.54543 52.9331 9.51116Z" fill="#F4F1F0"/>
<path d="M80.2191 24.5292C79.6457 25.7692 78.8124 26.7292 77.7191 27.4092C76.6257 28.0758 75.2924 28.4092 73.7191 28.4092C72.1857 28.4092 70.8791 28.0625 69.7991 27.3692C68.7324 26.6758 67.9191 25.7225 67.3591 24.5092C66.8124 23.2825 66.5391 21.8892 66.5391 20.3292C66.5391 18.7692 66.8124 17.3958 67.3591 16.2092C67.9057 15.0225 68.7191 14.0958 69.7991 13.4292C70.8791 12.7492 72.1857 12.4092 73.7191 12.4092C75.3191 12.4092 76.6657 12.7492 77.7591 13.4292C78.8524 14.0958 79.6924 15.0758 80.2791 16.3692L78.7791 17.4292C78.4724 16.6958 78.0791 16.0892 77.5991 15.6092C77.1324 15.1158 76.5724 14.7492 75.9191 14.5092C75.2657 14.2558 74.5324 14.1292 73.7191 14.1292C72.6391 14.1292 71.6857 14.3825 70.8591 14.8892C70.0457 15.3958 69.4124 16.1158 68.9591 17.0492C68.5057 17.9825 68.2791 19.0758 68.2791 20.3292C68.2791 21.6358 68.5057 22.7692 68.9591 23.7292C69.4124 24.6758 70.0457 25.4092 70.8591 25.9292C71.6724 26.4358 72.6257 26.6892 73.7191 26.6892C74.5324 26.6892 75.2591 26.5692 75.8991 26.3292C76.5524 26.0892 77.1124 25.7292 77.5791 25.2492C78.0457 24.7692 78.4324 24.1758 78.7391 23.4692L80.2191 24.5292ZM82.2813 20.3292C82.2813 18.7692 82.5546 17.3958 83.1013 16.2092C83.6613 15.0225 84.4813 14.0958 85.5613 13.4292C86.6546 12.7492 87.9679 12.4092 89.5013 12.4092C91.0346 12.4092 92.3413 12.7492 93.4213 13.4292C94.5013 14.0958 95.3146 15.0225 95.8613 16.2092C96.4213 17.3958 96.7013 18.7692 96.7013 20.3292C96.7013 21.8892 96.4213 23.2825 95.8613 24.5092C95.3146 25.7225 94.4946 26.6758 93.4013 27.3692C92.3213 28.0625 91.0213 28.4092 89.5013 28.4092C87.9679 28.4092 86.6546 28.0625 85.5613 27.3692C84.4813 26.6758 83.6613 25.7225 83.1013 24.5092C82.5546 23.2825 82.2813 21.8892 82.2813 20.3292ZM84.0413 20.3292C84.0413 21.5558 84.2546 22.6492 84.6813 23.6092C85.1079 24.5558 85.7279 25.3025 86.5413 25.8492C87.3679 26.3825 88.3546 26.6492 89.5013 26.6492C90.6479 26.6492 91.6279 26.3758 92.4413 25.8292C93.2546 25.2825 93.8746 24.5358 94.3013 23.5892C94.7279 22.6425 94.9413 21.5558 94.9413 20.3292C94.9413 19.1158 94.7279 18.0492 94.3013 17.1292C93.8746 16.2092 93.2546 15.4892 92.4413 14.9692C91.6279 14.4358 90.6479 14.1692 89.5013 14.1692C88.3546 14.1692 87.3679 14.4358 86.5413 14.9692C85.7279 15.4892 85.1079 16.2092 84.6813 17.1292C84.2546 18.0492 84.0413 19.1158 84.0413 20.3292ZM100.207 23.3492C100.74 24.5358 101.38 25.3892 102.127 25.9092C102.887 26.4292 103.814 26.6892 104.907 26.6892C106.08 26.6892 106.994 26.4825 107.647 26.0692C108.314 25.6558 108.647 25.0025 108.647 24.1092C108.647 23.2958 108.32 22.6225 107.667 22.0892C107.014 21.5558 106.06 21.1625 104.807 20.9092L103.807 20.6892C102.207 20.3692 100.994 19.8625 100.167 19.1692C99.3537 18.4758 98.947 17.5092 98.947 16.2692C98.947 15.4825 99.1804 14.7958 99.647 14.2092C100.127 13.6225 100.754 13.1758 101.527 12.8692C102.3 12.5625 103.147 12.4092 104.067 12.4092C105.587 12.4092 106.794 12.7492 107.687 13.4292C108.58 14.1092 109.327 15.1358 109.927 16.5092L108.527 17.3692C108.02 16.2358 107.4 15.4092 106.667 14.8892C105.947 14.3692 105.067 14.1092 104.027 14.1092C103 14.1092 102.18 14.3025 101.567 14.6892C100.954 15.0758 100.647 15.6425 100.647 16.3892C100.647 17.0825 100.934 17.6358 101.507 18.0492C102.08 18.4625 102.94 18.8025 104.087 19.0692L105.047 19.2892C106.34 19.5825 107.374 19.9558 108.147 20.4092C108.934 20.8492 109.5 21.3758 109.847 21.9892C110.194 22.6025 110.36 23.3358 110.347 24.1892C110.334 25.5758 109.827 26.6292 108.827 27.3492C107.827 28.0558 106.507 28.4092 104.867 28.4092C103.28 28.4092 102.007 28.0625 101.047 27.3692C100.1 26.6625 99.3204 25.6292 98.707 24.2692L100.207 23.3492ZM114.1 12.4092V28.4092H112.34V12.4092H114.1ZM114.16 12.4092L121.18 28.4092H119.36L112.42 12.4092H114.16ZM127.92 12.4092L121.18 28.4092H119.36L126.18 12.4092H127.92ZM128 12.4092V28.4092H126.24V12.4092H128ZM129.996 20.3292C129.996 18.7692 130.269 17.3958 130.816 16.2092C131.376 15.0225 132.196 14.0958 133.276 13.4292C134.369 12.7492 135.683 12.4092 137.216 12.4092C138.749 12.4092 140.056 12.7492 141.136 13.4292C142.216 14.0958 143.029 15.0225 143.576 16.2092C144.136 17.3958 144.416 18.7692 144.416 20.3292C144.416 21.8892 144.136 23.2825 143.576 24.5092C143.029 25.7225 142.209 26.6758 141.116 27.3692C140.036 28.0625 138.736 28.4092 137.216 28.4092C135.683 28.4092 134.369 28.0625 133.276 27.3692C132.196 26.6758 131.376 25.7225 130.816 24.5092C130.269 23.2825 129.996 21.8892 129.996 20.3292ZM131.756 20.3292C131.756 21.5558 131.969 22.6492 132.396 23.6092C132.823 24.5558 133.443 25.3025 134.256 25.8492C135.083 26.3825 136.069 26.6492 137.216 26.6492C138.363 26.6492 139.343 26.3758 140.156 25.8292C140.969 25.2825 141.589 24.5358 142.016 23.5892C142.443 22.6425 142.656 21.5558 142.656 20.3292C142.656 19.1158 142.443 18.0492 142.016 17.1292C141.589 16.2092 140.969 15.4892 140.156 14.9692C139.343 14.4358 138.363 14.1692 137.216 14.1692C136.069 14.1692 135.083 14.4358 134.256 14.9692C133.443 15.4892 132.823 16.2092 132.396 17.1292C131.969 18.0492 131.756 19.1158 131.756 20.3292ZM148.142 20.7292H152.382C153.342 20.7292 154.175 20.6292 154.882 20.4292C155.589 20.2158 156.149 19.8692 156.562 19.3892C156.989 18.9092 157.202 18.2692 157.202 17.4692C157.202 16.7092 156.989 16.0758 156.562 15.5692C156.149 15.0625 155.575 14.6892 154.842 14.4492C154.122 14.2092 153.302 14.0892 152.382 14.0892H148.142V20.7292ZM148.142 22.4092V28.3892V28.4092H146.422V12.4092H152.382C154.302 12.4092 155.889 12.7958 157.142 13.5692C158.395 14.3292 159.022 15.6425 159.022 17.5092C159.022 18.6825 158.709 19.6358 158.082 20.3692C157.455 21.0892 156.642 21.6092 155.642 21.9292C154.655 22.2492 153.569 22.4092 152.382 22.4092H148.142ZM162.731 12.4092V28.4092H161.031V12.4092H162.731ZM171.231 21.2492H162.731V19.5692L171.231 19.5492V21.2492ZM172.531 14.1092H162.731V12.4292L172.531 12.4092V14.1092ZM172.531 28.4092H162.731V26.7292L172.531 26.7092V28.4092ZM181.167 12.4092V28.4092H179.467V12.4092H181.167ZM186.107 14.1092H174.527V12.4092H186.107V14.1092Z" fill="#F4F1F0"/>
</svg>
