<svg width="260" height="146" viewBox="0 0 260 146" fill="none" xmlns="http://www.w3.org/2000/svg">
<path d="M225 122C231.421 121.527 236.527 116.421 237 110C237.473 116.421 242.579 121.527 249 122C242.579 122.473 237.473 127.579 237 134C236.527 127.579 231.421 122.473 225 122Z" fill="#F4F1F0"/>
<path d="M193 113.5C197.548 113.165 201.165 109.548 201.5 105C201.835 109.548 205.452 113.165 210 113.5C205.452 113.835 201.835 117.452 201.5 122C201.165 117.452 197.548 113.835 193 113.5Z" fill="#F4F1F0"/>
<path d="M243 8.5C247.548 8.16505 251.165 4.54847 251.5 -3.71547e-07C251.835 4.54847 255.452 8.16505 260 8.5C255.452 8.83495 251.835 12.4515 251.5 17C251.165 12.4515 247.548 8.83495 243 8.5Z" fill="#F4F1F0"/>
<path d="M-7.64949e-07 128.5L3.39231 128.25C10.8078 127.704 16.7041 121.808 17.2502 114.392L17.5 111L17.7498 114.392C18.2959 121.808 24.1921 127.704 31.6077 128.25L35 128.5L31.6077 128.75C24.1922 129.296 18.2959 135.192 17.7498 142.608L17.5 146L17.2502 142.608C16.7041 135.192 10.8078 129.296 3.39231 128.75L-7.64949e-07 128.5Z" fill="#F4F1F0"/>
</svg>
