<svg width="42" height="42" viewBox="0 0 42 42" fill="none" xmlns="http://www.w3.org/2000/svg">
<path fill-rule="evenodd" clip-rule="evenodd" d="M1.03906 21C1.03906 10.2304 9.76951 1.5 20.5391 1.5C31.3086 1.5 40.0391 10.2304 40.0391 21C40.0391 31.7696 31.3086 40.5 20.5391 40.5C9.76951 40.5 1.03906 31.7696 1.03906 21ZM20.5391 0.5C9.21723 0.5 0.0390625 9.67816 0.0390625 21C0.0390625 32.3218 9.21723 41.5 20.5391 41.5C31.8609 41.5 41.0391 32.3218 41.0391 21C41.0391 9.67816 31.8609 0.5 20.5391 0.5ZM31.1328 15.5683C31.5101 15.7922 31.8229 16.1101 32.0409 16.4909C32.2553 16.8511 32.377 17.2587 32.3953 17.6774C32.4136 18.0961 32.3281 18.5128 32.1463 18.8904L27.9516 27.2017C27.8453 27.4106 27.6833 27.5861 27.4834 27.7085C27.2836 27.831 27.0537 27.8958 26.8193 27.8956L15.3952 27.8528C15.1086 27.8616 14.8275 27.773 14.5976 27.6016C14.3678 27.4302 14.2027 27.186 14.1294 26.9088L10.6748 13.8722L9.10077 13.8663C8.76412 13.8651 8.44176 13.7302 8.20461 13.4912C7.96745 13.2523 7.83493 12.9289 7.83618 12.5923C7.83745 12.2556 7.97239 11.9332 8.21133 11.6961C8.45026 11.4589 8.77363 11.3264 9.11028 11.3277L11.649 11.3372C11.9356 11.3284 12.2167 11.417 12.4465 11.5884C12.6764 11.7598 12.8414 12.004 12.9148 12.2812L13.6403 15.1527L29.8878 15.2135C30.3265 15.2222 30.7554 15.3445 31.1328 15.5683ZM16.5799 30.823C16.5699 31.8745 15.7095 32.7189 14.658 32.709C13.6065 32.6991 12.7621 31.8386 12.772 30.7871C12.7819 29.7356 13.6423 28.8912 14.6938 28.9011C15.7453 28.911 16.5897 29.7714 16.5799 30.823ZM27.3486 32.8282C28.4001 32.8381 29.2605 31.9937 29.2704 30.9422C29.2803 29.8906 28.4359 29.0302 27.3844 29.0203C26.3329 29.0104 25.4724 29.8548 25.4625 30.9063C25.4526 31.9578 26.297 32.8183 27.3486 32.8282Z" fill="#F4F1F0"/>
</svg>
