<svg width="257" height="40" viewBox="0 0 257 40" fill="none" xmlns="http://www.w3.org/2000/svg">
<path d="M17.9141 2.5C8.24955 2.5 0.414062 10.3355 0.414062 20C0.414062 29.6645 8.24955 37.5 17.9141 37.5C27.5786 37.5 35.4141 29.6645 35.4141 20C35.4141 10.3355 27.5786 2.5 17.9141 2.5ZM26.506 14.4903L23.6383 28.0274C23.4237 28.9871 22.8592 29.2242 22.0576 28.7726L17.677 25.5435L15.5657 27.5758C15.3286 27.8129 15.1366 28.0048 14.685 28.0048L14.9899 23.5565L23.0963 16.229C23.4463 15.9242 23.0173 15.7435 22.5544 16.0484L12.5286 22.3597L8.21568 21.0161C7.27858 20.7226 7.256 20.079 8.4189 19.6274L25.2979 13.1129C26.077 12.8306 26.7657 13.3048 26.506 14.4903Z" fill="#121212"/>
<path d="M59.1661 5.2V34H56.1061V5.2H59.1661ZM68.0581 8.26H47.2141V5.2H68.0581V8.26ZM74.7077 5.2V34H71.6477V5.2H74.7077ZM90.0077 21.112H74.7077V18.088L90.0077 18.052V21.112ZM92.3477 8.26H74.7077V5.236L92.3477 5.2V8.26ZM92.3477 34H74.7077V30.976L92.3477 30.94V34ZM103.321 5.2V24.352C103.321 27.328 103.033 29.512 102.457 30.904C101.905 32.272 101.137 33.136 100.153 33.496C99.1926 33.832 97.7886 34 95.9406 34V30.94C97.2126 30.94 98.1246 30.82 98.6766 30.58C99.2286 30.34 99.6246 29.764 99.8646 28.852C100.129 27.94 100.261 26.44 100.261 24.352V5.2H103.321ZM117.361 5.2V34H114.301V5.2H117.361ZM114.301 8.224H103.321V5.2H114.301V8.224ZM124.735 5.2V34H121.675V5.2H124.735ZM140.035 21.112H124.735V18.088L140.035 18.052V21.112ZM142.375 8.26H124.735V5.236L142.375 5.2V8.26ZM142.375 34H124.735V30.976L142.375 30.94V34ZM149.064 8.296V34H145.968V5.2H164.832V8.296H149.064ZM171.529 20.176H179.161C180.889 20.176 182.389 19.996 183.661 19.636C184.933 19.252 185.941 18.628 186.685 17.764C187.453 16.9 187.837 15.748 187.837 14.308C187.837 12.94 187.453 11.8 186.685 10.888C185.941 9.976 184.909 9.304 183.589 8.872C182.293 8.44 180.817 8.224 179.161 8.224H171.529V20.176ZM171.529 23.2V33.964V34H168.433V5.2H179.161C182.617 5.2 185.473 5.896 187.729 7.288C189.985 8.656 191.113 11.02 191.113 14.38C191.113 16.492 190.549 18.208 189.421 19.528C188.293 20.824 186.829 21.76 185.029 22.336C183.253 22.912 181.297 23.2 179.161 23.2H171.529ZM206.768 5.2L194.384 34H191.144L203.528 5.2H206.768ZM206.804 5.2L219.26 34H216.02L203.564 5.2H206.804ZM213.284 25.504H196.76V22.444L213.284 22.408V25.504ZM226.023 5.2V34H222.855V5.2H226.023ZM226.131 5.2L238.767 34H235.491L222.999 5.2H226.131ZM250.899 5.2L238.767 34H235.491L247.767 5.2H250.899ZM251.043 5.2V34H247.875V5.2H251.043Z" fill="#121212"/>
</svg>
