<svg width="42" height="42" viewBox="0 0 42 42" fill="none" xmlns="http://www.w3.org/2000/svg">
<path fill-rule="evenodd" clip-rule="evenodd" d="M1.03906 21C1.03906 10.2304 9.76951 1.5 20.5391 1.5C31.3086 1.5 40.0391 10.2304 40.0391 21C40.0391 31.7696 31.3086 40.5 20.5391 40.5C9.76951 40.5 1.03906 31.7696 1.03906 21ZM20.5391 0.5C9.21723 0.5 0.0390625 9.67816 0.0390625 21C0.0390625 32.3218 9.21723 41.5 20.5391 41.5C31.8609 41.5 41.0391 32.3218 41.0391 21C41.0391 9.67816 31.8609 0.5 20.5391 0.5ZM17.1107 8.62718C16.0688 9.66905 15.4835 11.0821 15.4835 12.5556C15.4835 14.029 16.0688 15.4421 17.1107 16.4839C18.1526 17.5258 19.5656 18.1111 21.0391 18.1111C22.5125 18.1111 23.9256 17.5258 24.9674 16.4839C26.0093 15.4421 26.5946 14.029 26.5946 12.5556C26.5946 11.0821 26.0093 9.66905 24.9674 8.62718C23.9256 7.58532 22.5125 7 21.0391 7C19.5656 7 18.1526 7.58532 17.1107 8.62718ZM10.573 22.9229C11.8754 21.6205 13.6417 20.8889 15.4835 20.8889H26.5946C28.4364 20.8889 30.2027 21.6205 31.5051 22.9229C32.8074 24.2252 33.5391 25.9916 33.5391 27.8333C33.5391 28.9384 33.1001 29.9982 32.3187 30.7796C31.5373 31.561 30.4775 32 29.3724 32H12.7057C11.6007 32 10.5409 31.561 9.75945 30.7796C8.97805 29.9982 8.53906 28.9384 8.53906 27.8333C8.53906 25.9916 9.27071 24.2252 10.573 22.9229Z" fill="#F4F1F0"/>
</svg>
