<svg width="277" height="40" viewBox="0 0 277 40" fill="none" xmlns="http://www.w3.org/2000/svg">
<path fill-rule="evenodd" clip-rule="evenodd" d="M3.38307 4.96152C0.921875 7.42304 0.921875 11.38 0.921875 19.2987V20.6967C0.921875 28.6153 0.921875 32.577 3.38307 35.0385C5.84426 37.5 9.80074 37.5 17.723 37.5H19.1208C27.0384 37.5 30.9995 37.5 33.4607 35.0385C35.9219 32.577 35.9219 28.62 35.9219 20.6967V19.2987C35.9219 11.38 35.9219 7.41839 33.4607 4.95687C30.9995 2.5 27.0384 2.5 19.1208 2.5H17.723C9.80074 2.5 5.84426 2.5 3.38307 4.96152ZM6.82873 13.1495C7.01913 22.2479 11.57 27.7189 19.5433 27.7189H19.9938V22.5126C22.924 22.8052 25.1391 24.9463 26.0307 27.7189H30.1729C29.0352 23.5762 26.0446 21.2865 24.1778 20.4133C26.0446 19.3359 28.6683 16.7071 29.2952 13.1495H25.5338C24.7165 16.0383 22.2971 18.6624 19.9938 18.9086V13.1495H16.2323V23.2418C13.9012 22.6566 10.9524 19.8282 10.8224 13.1495H6.82873Z" fill="#121212"/>
<path d="M47.7219 5.2H58.6299C61.4619 5.176 63.5859 5.764 65.0019 6.964C66.4179 8.14 67.1259 9.748 67.1259 11.788C67.1259 12.748 66.9099 13.636 66.4779 14.452C66.0699 15.244 65.4939 15.904 64.7499 16.432C64.0299 16.936 63.2139 17.248 62.3019 17.368C63.9339 17.488 65.3619 17.86 66.5859 18.484C67.8099 19.108 68.7699 19.972 69.4659 21.076C70.1859 22.18 70.5459 23.488 70.5459 25C70.5459 28.024 69.4419 30.28 67.2339 31.768C65.0499 33.256 62.1819 34 58.6299 34H47.7219V5.2ZM58.6299 30.904C60.7419 30.904 62.4339 30.628 63.7059 30.076C65.0019 29.524 65.9139 28.804 66.4419 27.916C66.9939 27.004 67.2699 25.984 67.2699 24.856C67.2699 23.776 66.9819 22.804 66.4059 21.94C65.8299 21.076 64.8939 20.38 63.5979 19.852C62.3019 19.3 60.6459 19.024 58.6299 19.024H50.8179V30.904H58.6299ZM58.6299 15.964C60.4059 15.964 61.7499 15.616 62.6619 14.92C63.5739 14.2 64.0299 13.24 64.0299 12.04C64.0299 10.888 63.5739 9.976 62.6619 9.304C61.7739 8.632 60.4299 8.296 58.6299 8.296H50.8179V15.964H58.6299ZM77.2194 5.2V34H74.1594V5.2H77.2194ZM80.6394 21.112H76.2474V18.088L80.6394 18.052V21.112ZM91.2234 5.2H95.1474L82.4394 19.6L95.1474 34H91.2234L78.6594 19.6L91.2234 5.2ZM95.8508 19.456C95.8508 16.648 96.3428 14.176 97.3268 12.04C98.3348 9.904 99.8108 8.236 101.755 7.036C103.723 5.812 106.087 5.2 108.847 5.2C111.607 5.2 113.959 5.812 115.903 7.036C117.847 8.236 119.311 9.904 120.295 12.04C121.303 14.176 121.807 16.648 121.807 19.456C121.807 22.264 121.303 24.772 120.295 26.98C119.311 29.164 117.835 30.88 115.867 32.128C113.923 33.376 111.583 34 108.847 34C106.087 34 103.723 33.376 101.755 32.128C99.8108 30.88 98.3348 29.164 97.3268 26.98C96.3428 24.772 95.8508 22.264 95.8508 19.456ZM99.0188 19.456C99.0188 21.664 99.4028 23.632 100.171 25.36C100.939 27.064 102.055 28.408 103.519 29.392C105.007 30.352 106.783 30.832 108.847 30.832C110.911 30.832 112.675 30.34 114.139 29.356C115.603 28.372 116.719 27.028 117.487 25.324C118.255 23.62 118.639 21.664 118.639 19.456C118.639 17.272 118.255 15.352 117.487 13.696C116.719 12.04 115.603 10.744 114.139 9.808C112.675 8.848 110.911 8.368 108.847 8.368C106.783 8.368 105.007 8.848 103.519 9.808C102.055 10.744 100.939 12.04 100.171 13.696C99.4028 15.352 99.0188 17.272 99.0188 19.456ZM128.477 5.2V34H125.417V5.2H128.477ZM146.837 5.2V34H143.777V5.2H146.837ZM143.777 21.112H128.477V18.088L143.777 18.052V21.112ZM162.4 5.2V34H159.34V5.2H162.4ZM171.292 8.26H150.448V5.2H171.292V8.26ZM187.623 5.2L175.239 34H171.999L184.383 5.2H187.623ZM187.659 5.2L200.115 34H196.875L184.419 5.2H187.659ZM194.139 25.504H177.615V22.444L194.139 22.408V25.504ZM206.77 5.2V34H203.71V5.2H206.77ZM210.19 21.112H205.798V18.088L210.19 18.052V21.112ZM220.774 5.2H224.698L211.99 19.6L224.698 34H220.774L208.21 19.6L220.774 5.2ZM240.236 5.2V34H237.176V5.2H240.236ZM249.128 8.26H228.284V5.2H249.128V8.26ZM255.778 5.2V34H252.718V5.2H255.778ZM271.078 21.112H255.778V18.088L271.078 18.052V21.112ZM273.418 8.26H255.778V5.236L273.418 5.2V8.26ZM273.418 34H255.778V30.976L273.418 30.94V34Z" fill="#121212"/>
</svg>
