<svg width="325" height="42" viewBox="0 0 325 42" fill="none" xmlns="http://www.w3.org/2000/svg">
<path d="M17.9318 2.5C17.729 5.24125 17.7414 8.01985 17.2764 10.7157C16.3924 15.8298 13.5157 18.4341 8.33782 19.0405C5.87487 19.3291 3.38263 19.3723 0.904297 19.5268C0.904297 18.99 1.08006 17.5816 1.11082 17.4037C2.20059 11.1258 5.63685 6.6203 11.4291 4.00135C12.9708 3.3056 17.395 2.5 17.9318 2.5Z" fill="#121212"/>
<path d="M0.904297 20.4473C3.07723 20.5989 5.25968 20.6706 7.41943 20.9299C8.85121 21.1013 10.302 21.4015 11.6554 21.8893C14.538 22.9285 16.3975 25.0831 16.9754 28.0397C17.573 31.0988 17.789 34.2333 18.1911 37.4924C15.4308 37.5751 13.1612 36.9724 11.0315 35.9273C5.49551 33.2117 2.15811 28.8058 1.11302 22.6993C1.07567 22.4803 0.904297 20.9848 0.904297 20.4473Z" fill="#121212"/>
<path d="M22.4563 2.95944C29.7675 4.57797 35.5898 11.3817 35.9164 18.6936C35.9267 18.9199 35.9179 19.1469 35.9179 19.5248C32.0202 19.3872 28.1292 19.5673 24.512 17.8873C21.4903 16.4833 20.06 13.8571 19.5898 10.7181C19.2507 8.45292 19.198 6.14524 19.0105 3.85659C18.9731 3.40325 18.9058 2.95285 18.8516 2.50098C19.3884 2.50025 21.7906 2.8115 22.4563 2.95944Z" fill="#121212"/>
<path d="M18.8359 37.4313C19.0827 34.6754 19.1736 31.9935 19.5925 29.3636C20.3424 24.6537 22.9709 21.9806 27.6514 21.2043C30.3151 20.7627 33.0387 20.6806 35.7338 20.436C36.4523 28.1171 28.8122 37.6518 18.8359 37.4313Z" fill="#121212"/>
<path d="M58.6299 21.4H62.4099L51.6099 34H47.7939L58.6299 21.4ZM59.6739 8.224C58.0179 8.224 56.5299 8.44 55.2099 8.872C53.9139 9.304 52.8819 9.976 52.1139 10.888C51.3699 11.8 50.9979 12.94 50.9979 14.308C50.9979 15.748 51.3699 16.9 52.1139 17.764C52.8819 18.628 53.9019 19.252 55.1739 19.636C56.4699 19.996 57.9699 20.176 59.6739 20.176H67.3059V8.224H59.6739ZM59.6739 23.2C57.5619 23.2 55.6059 22.912 53.8059 22.336C52.0059 21.76 50.5419 20.824 49.4139 19.528C48.2859 18.208 47.7219 16.492 47.7219 14.38C47.7219 11.02 48.8499 8.656 51.1059 7.288C53.3619 5.896 56.2179 5.2 59.6739 5.2H70.4019V34H67.3059V33.964V23.2H59.6739ZM78.0631 5.2V34H75.0031V5.2H78.0631ZM96.4231 5.2V34H93.3631V5.2H96.4231ZM93.3631 21.112H78.0631V18.088L93.3631 18.052V21.112ZM103.994 33.964V30.94H122.354V34L103.994 33.964ZM130.814 30.94V34H125.414V30.94H130.814ZM130.814 30.94V41.2H127.754V30.94H130.814ZM103.994 34H100.034V30.94H103.994V34ZM103.094 41.2H100.034V30.94H103.094V41.2ZM111.374 5.2V24.352C111.374 27.328 111.086 29.512 110.51 30.904C109.958 32.272 109.19 33.136 108.206 33.496C107.246 33.832 105.842 34 103.994 34V30.94C105.266 30.94 106.178 30.82 106.73 30.58C107.282 30.34 107.678 29.764 107.918 28.852C108.182 27.94 108.314 26.44 108.314 24.352V5.2H111.374ZM125.414 5.2V34H122.354V5.2H125.414ZM122.354 8.224H111.374V5.2H122.354V8.224ZM137.477 5.2V34H134.417V5.2H137.477ZM152.777 21.112H137.477V18.088L152.777 18.052V21.112ZM155.117 8.26H137.477V5.236L155.117 5.2V8.26ZM155.117 34H137.477V30.976L155.117 30.94V34ZM161.77 5.2V34H158.71V5.2H161.77ZM165.19 21.112H160.798V18.088L165.19 18.052V21.112ZM175.774 5.2H179.698L166.99 19.6L179.698 34H175.774L163.21 19.6L175.774 5.2ZM205.026 27.016C203.994 29.248 202.494 30.976 200.526 32.2C198.558 33.4 196.158 34 193.326 34C190.566 34 188.214 33.376 186.27 32.128C184.35 30.88 182.886 29.164 181.878 26.98C180.894 24.772 180.402 22.264 180.402 19.456C180.402 16.648 180.894 14.176 181.878 12.04C182.862 9.904 184.326 8.236 186.27 7.036C188.214 5.812 190.566 5.2 193.326 5.2C196.206 5.2 198.63 5.812 200.598 7.036C202.566 8.236 204.078 10 205.134 12.328L202.434 14.236C201.882 12.916 201.174 11.824 200.31 10.96C199.47 10.072 198.462 9.412 197.286 8.98C196.11 8.524 194.79 8.296 193.326 8.296C191.382 8.296 189.666 8.752 188.178 9.664C186.714 10.576 185.574 11.872 184.758 13.552C183.942 15.232 183.534 17.2 183.534 19.456C183.534 21.808 183.942 23.848 184.758 25.576C185.574 27.28 186.714 28.6 188.178 29.536C189.642 30.448 191.358 30.904 193.326 30.904C194.79 30.904 196.098 30.688 197.25 30.256C198.426 29.824 199.434 29.176 200.274 28.312C201.114 27.448 201.81 26.38 202.362 25.108L205.026 27.016ZM221.346 33.964V30.94H239.706V34L221.346 33.964ZM248.166 30.94V34H242.766V30.94H248.166ZM248.166 30.94V41.2H245.106V30.94H248.166ZM221.346 34H217.386V30.94H221.346V34ZM220.446 41.2H217.386V30.94H220.446V41.2ZM228.726 5.2V24.352C228.726 27.328 228.438 29.512 227.862 30.904C227.31 32.272 226.542 33.136 225.558 33.496C224.598 33.832 223.194 34 221.346 34V30.94C222.618 30.94 223.53 30.82 224.082 30.58C224.634 30.34 225.03 29.764 225.27 28.852C225.534 27.94 225.666 26.44 225.666 24.352V5.2H228.726ZM242.766 5.2V34H239.706V5.2H242.766ZM239.706 8.224H228.726V5.2H239.706V8.224ZM260.632 30.904C262.288 30.904 263.644 30.664 264.7 30.184C265.78 29.68 266.584 29.008 267.112 28.168C267.64 27.304 267.904 26.32 267.904 25.216C267.904 23.56 267.352 22.288 266.248 21.4C265.144 20.488 263.488 20.032 261.28 20.032H258.652V16.972H261.28C263.08 16.972 264.46 16.6 265.42 15.856C266.404 15.088 266.896 14.032 266.896 12.688C266.896 11.68 266.68 10.852 266.248 10.204C265.816 9.556 265.144 9.076 264.232 8.764C263.32 8.452 262.12 8.296 260.632 8.296V5.2C262.84 5.2 264.628 5.476 265.996 6.028C267.388 6.556 268.396 7.348 269.02 8.404C269.668 9.46 269.992 10.78 269.992 12.364C269.992 13.42 269.728 14.392 269.2 15.28C268.696 16.144 268.024 16.852 267.184 17.404C266.368 17.932 265.504 18.256 264.592 18.376C266.608 18.544 268.204 19.18 269.38 20.284C270.58 21.388 271.18 23.056 271.18 25.288C271.18 27.28 270.7 28.936 269.74 30.256C268.804 31.552 267.532 32.5 265.924 33.1C264.34 33.7 262.576 34 260.632 34V30.904ZM260.632 34C258.544 34 256.696 33.64 255.088 32.92C253.504 32.176 252.256 31.024 251.344 29.464C250.432 27.904 249.976 25.924 249.976 23.524H253.072C253.072 25.756 253.696 27.544 254.944 28.888C256.192 30.232 258.088 30.904 260.632 30.904V34ZM250.84 13.552C250.84 11.752 251.176 10.228 251.848 8.98C252.544 7.732 253.612 6.796 255.052 6.172C256.492 5.524 258.352 5.2 260.632 5.2V8.296C258.4 8.296 256.72 8.74 255.592 9.628C254.488 10.516 253.936 11.824 253.936 13.552H250.84ZM277.856 5.2V34H274.796V5.2H277.856ZM293.156 21.112H277.856V18.088L293.156 18.052V21.112ZM295.496 8.26H277.856V5.236L295.496 5.2V8.26ZM295.496 34H277.856V30.976L295.496 30.94V34ZM302.149 5.2V34H299.089V5.2H302.149ZM320.509 5.2V34H317.449V5.2H320.509ZM317.449 21.112H302.149V18.088L317.449 18.052V21.112Z" fill="#121212"/>
</svg>
